<svg xmlns="http://www.w3.org/2000/svg" xml:space="preserve" width="239px" height="242px" x="0px" y="0px" viewBox="0 0 239 242"><radialGradient id="a" cx="76.855" cy="67.0557" r="180.4123" gradientUnits="userSpaceOnUse"><stop offset="0.1011" style="stop-color:#efeff0"/><stop offset="0.2561" style="stop-color:#e7e8e8"/><stop offset="0.5225" style="stop-color:#d3d4d4"/><stop offset="0.8662" style="stop-color:#b0b0b1"/><stop offset="1" style="stop-color:#9f9fa0"/></radialGradient><path fill="url(#a)" d="M123.574 12.822c-60.48 0-109.527 49.039-109.527 109.53 0 60.483 49.047 109.521 109.527 109.521 60.477 0 109.516-49.038 109.516-109.521 0-60.491-49.039-109.53-109.516-109.53z"/><radialGradient id="b" cx="74.335" cy="69.4766" r="182.7412" gradientUnits="userSpaceOnUse"><stop offset="0" style="stop-color:#8786bb"/><stop offset="0.0638" style="stop-color:#6a6cac"/><stop offset="0.1486" style="stop-color:#45529c"/><stop offset="0.2273" style="stop-color:#284192"/><stop offset="0.2968" style="stop-color:#0f398d"/><stop offset="0.35" style="stop-color:#04368b"/><stop offset="1" style="stop-color:#092757"/></radialGradient><path fill="url(#b)" d="M13.624 122.352c0 60.622 49.324 109.941 109.95 109.941 60.619 0 109.938-49.319 109.938-109.941 0-60.626-49.318-109.951-109.938-109.951-60.626-.001-109.95 49.325-109.95 109.951zm.845 0c0-60.164 48.943-109.108 109.105-109.108 60.154 0 109.094 48.945 109.094 109.108 0 60.157-48.939 109.1-109.094 109.1-60.162-.001-109.105-48.943-109.105-109.1z"/><linearGradient id="c" x1="197.3848" x2="50.3588" y1="196.1592" y2="49.1332" gradientUnits="userSpaceOnUse"><stop offset="0" style="stop-color:#fff"/><stop offset="0.2696" style="stop-color:#cecfcf"/><stop offset="0.5201" style="stop-color:#9f9fa0"/><stop offset="0.7329" style="stop-color:#7a7a7a"/><stop offset="0.8997" style="stop-color:#626161"/><stop offset="1" style="stop-color:#595757"/></linearGradient><path fill="url(#c)" d="M123.572 17.149c-58.086 0-105.191 47.1-105.191 105.199 0 58.096 47.104 105.196 105.191 105.196 58.086 0 105.189-47.1 105.189-105.196.001-58.099-47.103-105.199-105.189-105.199z"/><radialGradient id="d" cx="82.6245" cy="75.3018" r="133.8073" gradientUnits="userSpaceOnUse"><stop offset="0" style="stop-color:#8786bb"/><stop offset="0.0638" style="stop-color:#6a6cac"/><stop offset="0.1486" style="stop-color:#45529c"/><stop offset="0.2273" style="stop-color:#284192"/><stop offset="0.2968" style="stop-color:#0f398d"/><stop offset="0.35" style="stop-color:#04368b"/><stop offset="1" style="stop-color:#092757"/></radialGradient><path fill="url(#d)" d="M123.572 18.442c-57.372 0-103.897 46.516-103.897 103.906 0 57.386 46.525 103.9 103.897 103.9 57.379 0 103.896-46.514 103.896-103.9.001-57.39-46.517-103.906-103.896-103.906z"/><linearGradient id="e" x1="174.6211" x2="72.2017" y1="173.3984" y2="70.9798" gradientUnits="userSpaceOnUse"><stop offset="0" style="stop-color:#fff"/><stop offset="0.2696" style="stop-color:#cecfcf"/><stop offset="0.5201" style="stop-color:#9f9fa0"/><stop offset="0.7329" style="stop-color:#7a7a7a"/><stop offset="0.8997" style="stop-color:#626161"/><stop offset="1" style="stop-color:#595757"/></linearGradient><path fill="url(#e)" d="M123.574 49.834c-40.042 0-72.508 32.471-72.508 72.514s32.466 72.512 72.508 72.512c40.037 0 72.496-32.469 72.496-72.512s-32.459-72.514-72.496-72.514z"/><radialGradient id="f" cx="76.856" cy="66.5776" r="180.4084" gradientUnits="userSpaceOnUse"><stop offset="0.1011" style="stop-color:#fcfcfc"/><stop offset="0.2369" style="stop-color:#f5f5f5"/><stop offset="0.4705" style="stop-color:#e2e2e2"/><stop offset="0.7717" style="stop-color:#bfc0c0"/><stop offset="1" style="stop-color:#9f9fa0"/></radialGradient><path fill="url(#f)" d="M123.574 51.136c-39.056 0-70.727 31.678-70.727 70.736 0 39.059 31.671 70.728 70.727 70.728 39.057 0 70.715-31.669 70.715-70.728 0-39.058-31.658-70.736-70.715-70.736z"/><path fill="#062453" d="M172.422 103.326v-8.978l-.514-.609h-6.393v-2.876l-.518-.617h-9.592v4.103H113.02v-3.485l-.517-.617h-10.107v3.493H75.789v8.971l.517.616h8c-5.544 2.426-9.131 7.724-9.131 15.453 0 10.376 9.761 16.283 17.62 16.283h29.352v-3.153h7.791v2.54l.51.613h41.975v-8.973l-.514-.609h-6.393v-22.154h6.906z"/><radialGradient id="g" cx="82.6226" cy="75.3003" r="133.7994" gradientUnits="userSpaceOnUse"><stop offset="0" style="stop-color:#8786bb"/><stop offset="0.0638" style="stop-color:#6a6cac"/><stop offset="0.1486" style="stop-color:#45529c"/><stop offset="0.2273" style="stop-color:#284192"/><stop offset="0.2968" style="stop-color:#0f398d"/><stop offset="0.35" style="stop-color:#04368b"/><stop offset="1" style="stop-color:#092757"/></radialGradient><path fill="url(#g)" d="M171.908 102.71v-8.971h-6.91v-3.493h-10.105v3.493h-42.389v-3.493h-10.107v3.493H75.789v8.971h8.007c-5.552 2.425-9.131 7.718-9.131 15.457 0 10.371 9.758 16.283 17.616 16.283h29.35v-3.153h8.307v3.153h41.971v-8.969h-6.91v-22.77h6.909z"/><radialGradient id="h" cx="72.2314" cy="73.1592" r="180.8807" gradientUnits="userSpaceOnUse"><stop offset="0" style="stop-color:#8786bb"/><stop offset="0.0638" style="stop-color:#6a6cac"/><stop offset="0.1486" style="stop-color:#45529c"/><stop offset="0.2273" style="stop-color:#284192"/><stop offset="0.2968" style="stop-color:#0f398d"/><stop offset="0.35" style="stop-color:#04368b"/><stop offset="1" style="stop-color:#092757"/></radialGradient><path fill="url(#h)" d="M151.68 86.824v3.645h-35.457v-3.613l-17.031-.033v3.646H72.234v15.271l2.617-.006c-2.687 3.399-4 7.437-4 12.68 0 4.248 1.837 8.932 4.917 12.53 3.59 4.648 9.89 7.547 16.426 7.547h32.97v-3.297h1.871v3.215l48.727.083-.029-15.823h-7.014v-16.562h7.043l.031-15.638h-6.834v-3.675l-17.279.03zm16.406.841v3.672h6.836c-.002.796-.029 13.108-.029 13.902h-7.043v18.299h7.016l.025 14.083c-.85-.003-46.143-.081-46.986-.082v-3.215h-3.609v3.297H92.195c-6.275 0-12.31-2.769-15.753-7.229-2.963-3.46-4.721-7.934-4.721-11.979 0-5.381 1.368-9.461 4.306-12.835l.629-.723-3.552.012v-13.53h26.959v-3.642c.802 0 14.491.027 15.29.029v3.613h37.199v-3.646l15.534-.026z"/><radialGradient id="i" cx="76.8569" cy="67.0537" r="180.4046" gradientUnits="userSpaceOnUse"><stop offset="0.1011" style="stop-color:#fcfcfc"/><stop offset="0.2369" style="stop-color:#f5f5f5"/><stop offset="0.4705" style="stop-color:#e2e2e2"/><stop offset="0.7717" style="stop-color:#bfc0c0"/><stop offset="1" style="stop-color:#9f9fa0"/></radialGradient><path fill="url(#i)" d="M142.08 106.67c0-2.765-1.783-4.619-3.979-4.619-2.188 0-3.965 1.854-3.965 4.619 0 2.837 1.787 4.634 3.965 4.634 2.198 0 3.979-1.797 3.979-4.634zm.584 10.89c-2.496 0-4.746 1.612-4.746 4.292 0 2.655 2.25 4.288 4.746 4.288 2.504 0 4.746-1.633 4.746-4.288 0-2.681-2.242-4.292-4.746-4.292zm-39.234-7.794c0-2.363-1.626-4.152-3.638-4.152-2.009 0-3.638 1.789-3.638 4.152 0 2.404 1.629 4.151 3.638 4.151 2.012 0 3.638-1.747 3.638-4.151zm-7.649-10.217h8.041v2.365h-8.041v-2.365zm-3.479 10.217c0-1.825 1.065-3.442 2.785-4.493h-2.849v-2.372h15.116v2.372H104.5c1.713 1.05 2.782 2.668 2.782 4.493 0 3.17-3.226 5.745-7.489 5.745-4.266-.001-7.491-2.575-7.491-5.745zm21.925 17.874-14.086-.014c-2.905 0-4.698-1.678-4.698-4.432v-5.484h4.461v7.56h14.323v2.37zm3.084-18.839h-3.352v10.071h-4.107V99.549h4.107v6.888h3.352v2.364zm12.632-2.131c0-3.673 3.52-6.661 8.158-6.661 4.656 0 8.172 2.988 8.172 6.661 0 3.688-3.516 6.665-8.172 6.665-4.638 0-8.158-2.977-8.158-6.665zm25.063-1.276h-3.484v3.407h3.484v2.367h-3.484v10.684h-.006c-.033 3.62-3.936 6.571-8.852 6.571-4.91 0-8.82-2.951-8.85-6.571.029-3.621 3.939-6.567 8.85-6.567 1.754 0 3.381.378 4.746 1.028V99.549h4.111v3.472h3.484v2.373z"/><radialGradient id="j" cx="-2986.5884" cy="-4407.5078" r="180.3421" gradientTransform="rotate(83.021 -3982.657 -439.572)" gradientUnits="userSpaceOnUse"><stop offset="0.1011" style="stop-color:#fcfcfc"/><stop offset="0.2369" style="stop-color:#f5f5f5"/><stop offset="0.4705" style="stop-color:#e2e2e2"/><stop offset="0.7717" style="stop-color:#bfc0c0"/><stop offset="1" style="stop-color:#9f9fa0"/></radialGradient><path fill="url(#j)" d="M211.285 137.794c-.025 2.827-1.838 5.095-1.838 5.095s-1.766-2.306-1.732-5.134c.035-2.819 1.848-5.096 1.848-5.096s1.755 2.319 1.722 5.135z"/><radialGradient id="k" cx="-2986.5645" cy="-4407.458" r="180.3743" gradientTransform="rotate(83.021 -3982.657 -439.572)" gradientUnits="userSpaceOnUse"><stop offset="0.1011" style="stop-color:#fcfcfc"/><stop offset="0.2369" style="stop-color:#f5f5f5"/><stop offset="0.4705" style="stop-color:#e2e2e2"/><stop offset="0.7717" style="stop-color:#bfc0c0"/><stop offset="1" style="stop-color:#9f9fa0"/></radialGradient><path fill="url(#k)" d="M215.857 148.082c-3.414 3.854-8.234 5.155-8.234 5.155s.699-4.945 4.107-8.802c3.412-3.856 8.037-4.675 8.037-4.675s-.503 4.464-3.91 8.322z"/><radialGradient id="l" cx="-2986.562" cy="-4407.4219" r="180.401" gradientTransform="rotate(83.021 -3982.657 -439.572)" gradientUnits="userSpaceOnUse"><stop offset="0.1011" style="stop-color:#fcfcfc"/><stop offset="0.2369" style="stop-color:#f5f5f5"/><stop offset="0.4705" style="stop-color:#e2e2e2"/><stop offset="0.7717" style="stop-color:#bfc0c0"/><stop offset="1" style="stop-color:#9f9fa0"/></radialGradient><path fill="url(#l)" d="M206.523 144.916c.994 4.245-.229 7.8-.229 7.8s-2.998-2.934-3.982-7.191c-.979-4.25.174-7.211.174-7.211s3.057 2.34 4.037 6.602z"/><radialGradient id="m" cx="-2986.5635" cy="-4407.4365" r="180.391" gradientTransform="rotate(83.021 -3982.657 -439.572)" gradientUnits="userSpaceOnUse"><stop offset="0.1011" style="stop-color:#fcfcfc"/><stop offset="0.2369" style="stop-color:#f5f5f5"/><stop offset="0.4705" style="stop-color:#e2e2e2"/><stop offset="0.7717" style="stop-color:#bfc0c0"/><stop offset="1" style="stop-color:#9f9fa0"/></radialGradient><path fill="url(#m)" d="M210.305 162.44c-4.027 3.21-9.004 3.662-9.004 3.662s1.551-4.75 5.576-7.959c4.033-3.207 8.732-3.204 8.732-3.204s-1.271 4.3-5.304 7.501z"/><radialGradient id="n" cx="-2986.5762" cy="-4407.4375" r="180.4018" gradientTransform="rotate(83.021 -3982.657 -439.572)" gradientUnits="userSpaceOnUse"><stop offset="0.1011" style="stop-color:#fcfcfc"/><stop offset="0.2369" style="stop-color:#f5f5f5"/><stop offset="0.4705" style="stop-color:#e2e2e2"/><stop offset="0.7717" style="stop-color:#bfc0c0"/><stop offset="1" style="stop-color:#9f9fa0"/></radialGradient><path fill="url(#n)" d="M201.67 157.604c.234 4.369-1.582 7.654-1.582 7.654s-2.447-3.416-2.674-7.774c-.229-4.358 1.416-7.075 1.416-7.075s2.609 2.834 2.84 7.195z"/><radialGradient id="o" cx="-2986.6421" cy="-4407.4155" r="180.487" gradientTransform="rotate(83.021 -3982.657 -439.572)" gradientUnits="userSpaceOnUse"><stop offset="0.1011" style="stop-color:#fcfcfc"/><stop offset="0.2369" style="stop-color:#f5f5f5"/><stop offset="0.4705" style="stop-color:#e2e2e2"/><stop offset="0.7717" style="stop-color:#bfc0c0"/><stop offset="1" style="stop-color:#9f9fa0"/></radialGradient><path fill="url(#o)" d="M182.854 197.312c-4.723 1.08-9.145-.57-9.145-.57s3.262-3.412 7.998-4.496c4.721-1.074 8.721.844 8.721.844s-2.836 3.132-7.574 4.222z"/><radialGradient id="p" cx="-2986.5801" cy="-4407.4004" r="180.4321" gradientTransform="rotate(83.021 -3982.657 -439.572)" gradientUnits="userSpaceOnUse"><stop offset="0.1011" style="stop-color:#fcfcfc"/><stop offset="0.2369" style="stop-color:#f5f5f5"/><stop offset="0.4705" style="stop-color:#e2e2e2"/><stop offset="0.7717" style="stop-color:#bfc0c0"/><stop offset="1" style="stop-color:#9f9fa0"/></radialGradient><path fill="url(#p)" d="M177.326 189.331c-1.721 4.105-4.83 6.33-4.83 6.33s-.74-4.21.967-8.328c1.711-4.09 4.424-5.867 4.424-5.867s1.144 3.766-.561 7.865z"/><radialGradient id="q" cx="-2986.583" cy="-4407.4297" r="180.4245" gradientTransform="rotate(83.021 -3982.657 -439.572)" gradientUnits="userSpaceOnUse"><stop offset="0.1011" style="stop-color:#fcfcfc"/><stop offset="0.2369" style="stop-color:#f5f5f5"/><stop offset="0.4705" style="stop-color:#e2e2e2"/><stop offset="0.7717" style="stop-color:#bfc0c0"/><stop offset="1" style="stop-color:#9f9fa0"/></radialGradient><path fill="url(#q)" d="M169.568 205.415c-4.621-.014-8.373-2.5-8.373-2.5s3.76-2.465 8.393-2.439c4.625.007 7.922 2.646 7.922 2.646s-3.309 2.303-7.942 2.293z"/><radialGradient id="r" cx="-2986.5542" cy="-4407.4404" r="180.3897" gradientTransform="rotate(83.021 -3982.657 -439.572)" gradientUnits="userSpaceOnUse"><stop offset="0.1011" style="stop-color:#fcfcfc"/><stop offset="0.2369" style="stop-color:#f5f5f5"/><stop offset="0.4705" style="stop-color:#e2e2e2"/><stop offset="0.7717" style="stop-color:#bfc0c0"/><stop offset="1" style="stop-color:#9f9fa0"/></radialGradient><path fill="url(#r)" d="M166.439 196.332c-2.582 3.62-6.125 5.083-6.125 5.083s.234-4.273 2.822-7.885 5.637-4.721 5.637-4.721.266 3.919-2.334 7.523z"/><radialGradient id="s" cx="-2986.5464" cy="-4407.4131" r="180.3908" gradientTransform="rotate(83.021 -3982.657 -439.572)" gradientUnits="userSpaceOnUse"><stop offset="0.1011" style="stop-color:#fcfcfc"/><stop offset="0.2369" style="stop-color:#f5f5f5"/><stop offset="0.4705" style="stop-color:#e2e2e2"/><stop offset="0.7717" style="stop-color:#bfc0c0"/><stop offset="1" style="stop-color:#9f9fa0"/></radialGradient><path fill="url(#s)" d="M140.359 201.892c-.715 1.441 1.584 4.016 4.01 5.208 1.168.571 2.346.829 3.35.786-.818.563-1.611 1.484-2.176 2.643-1.197 2.43-1.457 5.867-.02 6.566 1.43.717 4.008-1.582 5.193-4.002.574-1.168.834-2.352.785-3.348.574.818 1.492 1.607 2.662 2.178 2.414 1.195 5.857 1.444 6.564.014.707-1.43-1.582-4.008-4.014-5.207-1.162-.576-2.34-.813-3.34-.77.818-.577 1.602-1.494 2.176-2.654 1.191-2.422 1.451-5.867.014-6.576-1.432-.705-4.002 1.586-5.201 4.018-.576 1.156-.832 2.34-.779 3.337-.572-.808-1.488-1.606-2.65-2.179-2.429-1.19-5.872-1.442-6.574-.014zm7.557 3.734a2.925 2.925 0 0 1 3.92-1.333 2.933 2.933 0 0 1 1.338 3.921 2.93 2.93 0 0 1-3.92 1.32 2.916 2.916 0 0 1-1.338-3.908z"/><radialGradient id="t" cx="-2986.5732" cy="-4407.415" r="180.4197" gradientTransform="rotate(83.021 -3982.657 -439.572)" gradientUnits="userSpaceOnUse"><stop offset="0.1011" style="stop-color:#fcfcfc"/><stop offset="0.2369" style="stop-color:#f5f5f5"/><stop offset="0.4705" style="stop-color:#e2e2e2"/><stop offset="0.7717" style="stop-color:#bfc0c0"/><stop offset="1" style="stop-color:#9f9fa0"/></radialGradient><path fill="url(#t)" d="M192.213 163.984c-1.617.235-2.469 3.653-2.072 6.392.188 1.309.658 2.453 1.279 3.264-.957-.365-2.188-.489-3.494-.295-2.74.381-5.787 2.158-5.555 3.772.229 1.616 3.652 2.468 6.391 2.064 1.314-.182 2.455-.65 3.27-1.271-.363.959-.49 2.193-.301 3.506.387 2.729 2.158 5.767 3.781 5.534 1.611-.231 2.461-3.646 2.07-6.382-.191-1.307-.662-2.454-1.277-3.27.951.365 2.188.492 3.482.307 2.746-.391 5.797-2.173 5.557-3.788-.23-1.608-3.654-2.458-6.389-2.063-1.314.188-2.453.656-3.264 1.273.355-.953.494-2.186.309-3.493-.402-2.739-2.168-5.782-3.787-5.55zm1.219 8.518a2.993 2.993 0 0 1 3.379 2.542 2.984 2.984 0 0 1-2.527 3.391 2.99 2.99 0 0 1-3.379-2.539c-.239-1.635.902-3.144 2.527-3.394z"/><radialGradient id="u" cx="-4529.5879" cy="8198.2666" r="180.459" gradientTransform="scale(-1 1) rotate(83.021 2290.382 6648.147)" gradientUnits="userSpaceOnUse"><stop offset="0.1011" style="stop-color:#fcfcfc"/><stop offset="0.2369" style="stop-color:#f5f5f5"/><stop offset="0.4705" style="stop-color:#e2e2e2"/><stop offset="0.7717" style="stop-color:#bfc0c0"/><stop offset="1" style="stop-color:#9f9fa0"/></radialGradient><path fill="url(#u)" d="M36.511 137.794c.036 2.827 1.842 5.095 1.842 5.095s1.766-2.306 1.736-5.134c-.036-2.819-1.849-5.096-1.849-5.096s-1.755 2.319-1.729 5.135z"/><radialGradient id="v" cx="-4529.5771" cy="8198.2432" r="180.4168" gradientTransform="scale(-1 1) rotate(83.021 2290.382 6648.147)" gradientUnits="userSpaceOnUse"><stop offset="0.1011" style="stop-color:#fcfcfc"/><stop offset="0.2369" style="stop-color:#f5f5f5"/><stop offset="0.4705" style="stop-color:#e2e2e2"/><stop offset="0.7717" style="stop-color:#bfc0c0"/><stop offset="1" style="stop-color:#9f9fa0"/></radialGradient><path fill="url(#v)" d="M31.952 148.082c3.409 3.854 8.23 5.155 8.23 5.155s-.706-4.945-4.117-8.802c-3.406-3.856-8.026-4.675-8.026-4.675s.495 4.464 3.913 8.322z"/><radialGradient id="w" cx="-4529.564" cy="8198.2588" r="180.3994" gradientTransform="scale(-1 1) rotate(83.021 2290.382 6648.147)" gradientUnits="userSpaceOnUse"><stop offset="0.1011" style="stop-color:#fcfcfc"/><stop offset="0.2369" style="stop-color:#f5f5f5"/><stop offset="0.4705" style="stop-color:#e2e2e2"/><stop offset="0.7717" style="stop-color:#bfc0c0"/><stop offset="1" style="stop-color:#9f9fa0"/></radialGradient><path fill="url(#w)" d="M41.275 144.916c-.991 4.245.229 7.8.229 7.8s3.002-2.934 3.987-7.191c.979-4.25-.174-7.211-.174-7.211s-3.064 2.34-4.042 6.602z"/><radialGradient id="x" cx="-4529.5679" cy="8198.2461" r="180.4026" gradientTransform="scale(-1 1) rotate(83.021 2290.382 6648.147)" gradientUnits="userSpaceOnUse"><stop offset="0.1011" style="stop-color:#fcfcfc"/><stop offset="0.2369" style="stop-color:#f5f5f5"/><stop offset="0.4705" style="stop-color:#e2e2e2"/><stop offset="0.7717" style="stop-color:#bfc0c0"/><stop offset="1" style="stop-color:#9f9fa0"/></radialGradient><path fill="url(#x)" d="M37.491 162.44c4.035 3.21 9.007 3.662 9.007 3.662s-1.55-4.75-5.574-7.959c-4.033-3.207-8.734-3.204-8.734-3.204s1.274 4.3 5.301 7.501z"/><radialGradient id="y" cx="-4529.5894" cy="8198.2607" r="180.4507" gradientTransform="scale(-1 1) rotate(83.021 2290.382 6648.147)" gradientUnits="userSpaceOnUse"><stop offset="0.1011" style="stop-color:#fcfcfc"/><stop offset="0.2369" style="stop-color:#f5f5f5"/><stop offset="0.4705" style="stop-color:#e2e2e2"/><stop offset="0.7717" style="stop-color:#bfc0c0"/><stop offset="1" style="stop-color:#9f9fa0"/></radialGradient><path fill="url(#y)" d="M46.125 157.604c-.222 4.369 1.59 7.654 1.59 7.654s2.446-3.416 2.675-7.774c.226-4.358-1.414-7.075-1.414-7.075s-2.613 2.834-2.851 7.195z"/><radialGradient id="z" cx="-4529.6436" cy="8198.2549" r="180.5137" gradientTransform="scale(-1 1) rotate(83.021 2290.382 6648.147)" gradientUnits="userSpaceOnUse"><stop offset="0.1011" style="stop-color:#fcfcfc"/><stop offset="0.2369" style="stop-color:#f5f5f5"/><stop offset="0.4705" style="stop-color:#e2e2e2"/><stop offset="0.7717" style="stop-color:#bfc0c0"/><stop offset="1" style="stop-color:#9f9fa0"/></radialGradient><path fill="url(#z)" d="M64.948 197.312c4.724 1.08 9.146-.57 9.146-.57s-3.263-3.412-7.997-4.496c-4.728-1.074-8.721.844-8.721.844s2.832 3.132 7.572 4.222z"/><radialGradient id="A" cx="-4529.5898" cy="8198.25" r="180.4396" gradientTransform="scale(-1 1) rotate(83.021 2290.382 6648.147)" gradientUnits="userSpaceOnUse"><stop offset="0.1011" style="stop-color:#fcfcfc"/><stop offset="0.2369" style="stop-color:#f5f5f5"/><stop offset="0.4705" style="stop-color:#e2e2e2"/><stop offset="0.7717" style="stop-color:#bfc0c0"/><stop offset="1" style="stop-color:#9f9fa0"/></radialGradient><path fill="url(#A)" d="M70.474 189.331c1.72 4.105 4.828 6.33 4.828 6.33s.742-4.21-.966-8.328c-1.709-4.09-4.423-5.867-4.423-5.867s-1.143 3.766.561 7.865z"/><radialGradient id="B" cx="-4529.5879" cy="8198.2549" r="180.4344" gradientTransform="scale(-1 1) rotate(83.021 2290.382 6648.147)" gradientUnits="userSpaceOnUse"><stop offset="0.1011" style="stop-color:#fcfcfc"/><stop offset="0.2369" style="stop-color:#f5f5f5"/><stop offset="0.4705" style="stop-color:#e2e2e2"/><stop offset="0.7717" style="stop-color:#bfc0c0"/><stop offset="1" style="stop-color:#9f9fa0"/></radialGradient><path fill="url(#B)" d="M78.233 205.415c4.621-.014 8.374-2.5 8.374-2.5s-3.761-2.465-8.394-2.439c-4.627.007-7.921 2.646-7.921 2.646s3.309 2.303 7.941 2.293z"/><radialGradient id="C" cx="-4529.5503" cy="8198.251" r="180.3869" gradientTransform="scale(-1 1) rotate(83.021 2290.382 6648.147)" gradientUnits="userSpaceOnUse"><stop offset="0.1011" style="stop-color:#fcfcfc"/><stop offset="0.2369" style="stop-color:#f5f5f5"/><stop offset="0.4705" style="stop-color:#e2e2e2"/><stop offset="0.7717" style="stop-color:#bfc0c0"/><stop offset="1" style="stop-color:#9f9fa0"/></radialGradient><path fill="url(#C)" d="M81.357 196.332c2.586 3.62 6.128 5.083 6.128 5.083s-.227-4.273-2.823-7.885c-2.593-3.612-5.64-4.721-5.64-4.721s-.26 3.919 2.335 7.523z"/><radialGradient id="D" cx="-4529.5557" cy="8198.251" r="180.3941" gradientTransform="scale(-1 1) rotate(83.021 2290.382 6648.147)" gradientUnits="userSpaceOnUse"><stop offset="0.1011" style="stop-color:#fcfcfc"/><stop offset="0.2369" style="stop-color:#f5f5f5"/><stop offset="0.4705" style="stop-color:#e2e2e2"/><stop offset="0.7717" style="stop-color:#bfc0c0"/><stop offset="1" style="stop-color:#9f9fa0"/></radialGradient><path fill="url(#D)" d="M100.871 201.905c-1.171.572-2.087 1.371-2.654 2.179.049-.997-.201-2.181-.777-3.337-1.202-2.432-3.768-4.723-5.202-4.018-1.436.709-1.185 4.154.01 6.576.578 1.16 1.36 2.077 2.178 2.654-1-.044-2.183.193-3.341.77-2.435 1.199-4.72 3.777-4.015 5.207.711 1.431 4.148 1.182 6.569-.014 1.17-.57 2.087-1.359 2.658-2.178-.048.996.203 2.18.78 3.348 1.19 2.42 3.768 4.719 5.204 4.002 1.432-.699 1.175-4.137-.021-6.566-.568-1.158-1.355-2.079-2.176-2.643 1.004.043 2.185-.215 3.347-.786 2.421-1.192 4.721-3.767 4.015-5.208-.707-1.427-4.149-1.175-6.575.014zm-2.318 7.629a2.939 2.939 0 0 1-3.928-1.32 2.94 2.94 0 0 1 1.335-3.921 2.928 2.928 0 0 1 3.924 1.333 2.92 2.92 0 0 1-1.331 3.908z"/><radialGradient id="E" cx="-4529.5718" cy="8198.2539" r="180.4121" gradientTransform="scale(-1 1) rotate(83.021 2290.382 6648.147)" gradientUnits="userSpaceOnUse"><stop offset="0.1011" style="stop-color:#fcfcfc"/><stop offset="0.2369" style="stop-color:#f5f5f5"/><stop offset="0.4705" style="stop-color:#e2e2e2"/><stop offset="0.7717" style="stop-color:#bfc0c0"/><stop offset="1" style="stop-color:#9f9fa0"/></radialGradient><path fill="url(#E)" d="M51.804 169.535c-.193 1.308-.054 2.54.301 3.493-.807-.617-1.944-1.086-3.261-1.273-2.734-.395-6.151.455-6.387 2.063-.237 1.615 2.812 3.397 5.551 3.788 1.299.186 2.533.059 3.488-.307-.617.815-1.082 1.963-1.28 3.27-.389 2.736.459 6.15 2.082 6.382 1.61.232 3.386-2.806 3.781-5.534.183-1.313.058-2.547-.308-3.506.812.62 1.958 1.089 3.268 1.271 2.741.403 6.158-.448 6.395-2.064.228-1.614-2.823-3.392-5.554-3.772-1.309-.194-2.538-.07-3.498.295.624-.811 1.091-1.955 1.277-3.264.396-2.738-.456-6.156-2.072-6.392-1.614-.233-3.388 2.81-3.783 5.55zm5.094 6.361a2.994 2.994 0 0 1-3.382 2.539 2.987 2.987 0 0 1-2.527-3.391 2.993 2.993 0 0 1 3.381-2.542 3.01 3.01 0 0 1 2.528 3.394z"/><radialGradient id="F" cx="76.8442" cy="67.1055" r="180.3648" gradientUnits="userSpaceOnUse"><stop offset="0.1011" style="stop-color:#fcfcfc"/><stop offset="0.2369" style="stop-color:#f5f5f5"/><stop offset="0.4705" style="stop-color:#e2e2e2"/><stop offset="0.7717" style="stop-color:#bfc0c0"/><stop offset="1" style="stop-color:#9f9fa0"/></radialGradient><path fill="url(#F)" d="M127.248 211.702a3.676 3.676 0 0 1-7.35 0 3.674 3.674 0 0 1 3.682-3.666 3.668 3.668 0 0 1 3.668 3.666z"/><radialGradient id="G" cx="76.8599" cy="67.0562" r="180.4126" gradientUnits="userSpaceOnUse"><stop offset="0.1011" style="stop-color:#fcfcfc"/><stop offset="0.2369" style="stop-color:#f5f5f5"/><stop offset="0.4705" style="stop-color:#e2e2e2"/><stop offset="0.7717" style="stop-color:#bfc0c0"/><stop offset="1" style="stop-color:#9f9fa0"/></radialGradient><path fill="url(#G)" d="m27.242 111.268 7.342.956.48-3.657-7.397-.955.648-3.501 18.188 2.382-.648 3.502-7.534-.997-.482 3.659 7.533.997-.275 3.496-18.189-2.385.334-3.497z"/><radialGradient id="H" cx="76.8545" cy="67.0596" r="180.3948" gradientUnits="userSpaceOnUse"><stop offset="0.1011" style="stop-color:#fcfcfc"/><stop offset="0.2369" style="stop-color:#f5f5f5"/><stop offset="0.4705" style="stop-color:#e2e2e2"/><stop offset="0.7717" style="stop-color:#bfc0c0"/><stop offset="1" style="stop-color:#9f9fa0"/></radialGradient><path fill="url(#H)" d="m44.681 97.288 3.672 2.094-.97 3.352-16.252-9.801 1.332-3.888 18.673 2.524-1.233 3.22-4.179-.592-1.043 3.091zm-1.666-3.662-3.788-.654c-1.104-.175-2.891-.53-4.094-.762l-.028.076c1.088.567 2.787 1.432 3.727 1.943l3.354 1.844.829-2.447z"/><radialGradient id="I" cx="76.8599" cy="67.0508" r="180.4226" gradientUnits="userSpaceOnUse"><stop offset="0.1011" style="stop-color:#fcfcfc"/><stop offset="0.2369" style="stop-color:#f5f5f5"/><stop offset="0.4705" style="stop-color:#e2e2e2"/><stop offset="0.7717" style="stop-color:#bfc0c0"/><stop offset="1" style="stop-color:#9f9fa0"/></radialGradient><path fill="url(#I)" d="m43.595 79.177-.153-.07 10.841 5.948-1.404 2.791-15.962-9.142 1.488-2.836 13.315 2.107.03-.048-11.09-5.923 1.654-2.646 15.94 9.105-1.765 2.734-12.894-2.02z"/><radialGradient id="J" cx="76.8599" cy="67.0537" r="180.4296" gradientUnits="userSpaceOnUse"><stop offset="0.1011" style="stop-color:#fcfcfc"/><stop offset="0.2369" style="stop-color:#f5f5f5"/><stop offset="0.4705" style="stop-color:#e2e2e2"/><stop offset="0.7717" style="stop-color:#bfc0c0"/><stop offset="1" style="stop-color:#9f9fa0"/></radialGradient><path fill="url(#J)" d="m62.617 72.613-5.336-4.542-11.125-4.214 2.328-2.923 4.219 1.909a54.625 54.625 0 0 1 3.551 1.776l.03-.038a51.26 51.26 0 0 1-2.456-3.188l-2.611-3.637 2.464-2.664 5.783 10.205 5.454 4.627-2.301 2.689z"/><radialGradient id="K" cx="76.8618" cy="67.0532" r="180.3704" gradientUnits="userSpaceOnUse"><stop offset="0.1011" style="stop-color:#fcfcfc"/><stop offset="0.2369" style="stop-color:#f5f5f5"/><stop offset="0.4705" style="stop-color:#e2e2e2"/><stop offset="0.7717" style="stop-color:#bfc0c0"/><stop offset="1" style="stop-color:#9f9fa0"/></radialGradient><path fill="url(#K)" d="m68.878 60.03 2.128 3.78-2.532 2.378-8.91-16.706 3.228-2.725 14.716 11.796-2.78 2.124-3.361-2.756-2.489 2.109zm.466-3.993-2.903-2.519a136.862 136.862 0 0 1-3.111-2.768l-.064.055c.639 1.046 1.651 2.662 2.183 3.582l1.922 3.315 1.973-1.665z"/><radialGradient id="L" cx="76.8608" cy="67.0537" r="180.4193" gradientUnits="userSpaceOnUse"><stop offset="0.1011" style="stop-color:#fcfcfc"/><stop offset="0.2369" style="stop-color:#f5f5f5"/><stop offset="0.4705" style="stop-color:#e2e2e2"/><stop offset="0.7717" style="stop-color:#bfc0c0"/><stop offset="1" style="stop-color:#9f9fa0"/></radialGradient><path fill="url(#L)" d="m80.816 56.268-8.891-16.05 2.759-1.67 5.947 4.909c1.151.969 3.051 2.56 4.267 3.699l.049-.021c-1.021-1.62-2.761-4.264-4.382-7.184l-1.967-3.565 2.767-1.409 8.924 16.065L87.4 52.45l-5.863-4.754c-1.264-1.056-3.103-2.653-4.253-3.896l-.046.03c.958 1.564 2.43 3.948 4.208 7.153l2.028 3.659-2.658 1.626z"/><radialGradient id="M" cx="76.8623" cy="67.0547" r="180.388" gradientUnits="userSpaceOnUse"><stop offset="0.1011" style="stop-color:#fcfcfc"/><stop offset="0.2369" style="stop-color:#f5f5f5"/><stop offset="0.4705" style="stop-color:#e2e2e2"/><stop offset="0.7717" style="stop-color:#bfc0c0"/><stop offset="1" style="stop-color:#9f9fa0"/></radialGradient><path fill="url(#M)" d="M104.469 45.235c-.64.547-2.133 1.365-3.389 1.767-1.976.633-3.648.545-5.17-.238-1.944-.96-3.565-3.271-4.469-6.264-1.939-6.31.812-10.077 4.479-11.256 1.312-.413 2.366-.474 2.989-.39l.337 3.09c-.563-.076-1.249-.026-2.099.246-2.283.735-3.6 2.881-2.155 7.399 1.333 4.157 3.43 5.122 4.993 4.621.308-.099.526-.198.644-.289l-1.343-4.18-1.538.493-.882-2.746 4.645-1.493 2.958 9.24z"/><radialGradient id="N" cx="76.854" cy="67.0518" r="180.4299" gradientUnits="userSpaceOnUse"><stop offset="0.1011" style="stop-color:#fcfcfc"/><stop offset="0.2369" style="stop-color:#f5f5f5"/><stop offset="0.4705" style="stop-color:#e2e2e2"/><stop offset="0.7717" style="stop-color:#bfc0c0"/><stop offset="1" style="stop-color:#9f9fa0"/></radialGradient><path fill="url(#N)" d="m118.52 25.453.395 11.842c.096 2.666.932 3.445 1.846 3.419 1.021-.04 1.729-.792 1.631-3.538l-.418-11.825 3.547.021.377 11.066c.158 4.655-1.508 7.246-5.004 7.366-3.799.132-5.367-2.43-5.523-6.979l-.377-11.105 3.526-.267z"/><radialGradient id="O" cx="76.8628" cy="67.0522" r="180.3666" gradientUnits="userSpaceOnUse"><stop offset="0.1011" style="stop-color:#fcfcfc"/><stop offset="0.2369" style="stop-color:#f5f5f5"/><stop offset="0.4705" style="stop-color:#e2e2e2"/><stop offset="0.7717" style="stop-color:#bfc0c0"/><stop offset="1" style="stop-color:#9f9fa0"/></radialGradient><path fill="url(#O)" d="m140.164 39.437.053.007 1.732-12.37 3.057.636-3.076 18.083-3.141-.657-2.477-13.08-.051-.01-1.869 12.324-3.094-.363 3.09-18.071 3.148.4 2.628 13.101z"/><radialGradient id="P" cx="76.8525" cy="67.063" r="180.402" gradientUnits="userSpaceOnUse"><stop offset="0.1011" style="stop-color:#fcfcfc"/><stop offset="0.2369" style="stop-color:#f5f5f5"/><stop offset="0.4705" style="stop-color:#e2e2e2"/><stop offset="0.7717" style="stop-color:#bfc0c0"/><stop offset="1" style="stop-color:#9f9fa0"/></radialGradient><path fill="url(#P)" d="m156.264 31.009-5.893 17.342-3.344-1.142 5.891-17.336 3.346 1.136z"/><radialGradient id="Q" cx="76.8291" cy="67.0518" r="180.4494" gradientUnits="userSpaceOnUse"><stop offset="0.1011" style="stop-color:#fcfcfc"/><stop offset="0.2369" style="stop-color:#f5f5f5"/><stop offset="0.4705" style="stop-color:#e2e2e2"/><stop offset="0.7717" style="stop-color:#bfc0c0"/><stop offset="1" style="stop-color:#9f9fa0"/></radialGradient><path fill="url(#Q)" d="m169.742 36.987 3.348 1.931-12.01 14.243-3.49-1.786 4.658-18.02 3.551 1.602-4.525 13.738.049.022 8.419-11.73z"/><radialGradient id="R" cx="76.8579" cy="67.0522" r="180.393" gradientUnits="userSpaceOnUse"><stop offset="0.1011" style="stop-color:#fcfcfc"/><stop offset="0.2369" style="stop-color:#f5f5f5"/><stop offset="0.4705" style="stop-color:#e2e2e2"/><stop offset="0.7717" style="stop-color:#bfc0c0"/><stop offset="1" style="stop-color:#9f9fa0"/></radialGradient><path fill="url(#R)" d="m178.781 55.419-3.316-2.499-2.951 3.914 3.74 2.821-1.887 2.538-6.559-4.944 11.031-14.64 6.303 4.75-1.914 2.508-3.482-2.625-2.512 3.332 3.309 2.5-1.762 2.345z"/><radialGradient id="S" cx="76.8569" cy="67.0552" r="180.3947" gradientUnits="userSpaceOnUse"><stop offset="0.1011" style="stop-color:#fcfcfc"/><stop offset="0.2369" style="stop-color:#f5f5f5"/><stop offset="0.4705" style="stop-color:#e2e2e2"/><stop offset="0.7717" style="stop-color:#bfc0c0"/><stop offset="1" style="stop-color:#9f9fa0"/></radialGradient><path fill="url(#S)" d="M191.707 53.425c.805.778 1.814 1.743 2.73 2.73 1.318 1.418 2.221 2.924 2.236 4.527.029 1.479-.641 2.548-1.789 3.61-1.424 1.322-3.344 1.821-5.238 1.051l-.043.034c.492 1.239.061 2.478-1.121 4.06-1.244 1.63-2.641 3.753-2.908 4.451l-2.426-2.953c.227-.506 1.295-2.044 2.572-3.602 1.436-1.781 1.521-2.633.721-3.503l-.348-.372-5.309 4.929-2.521-2.483 13.444-12.479zm-3.625 8.179.428.454c1.041 1.124 2.551.934 3.721-.149 1.123-1.046 1.51-2.251.465-3.453-.201-.221-.459-.461-.641-.545l-3.973 3.693z"/><radialGradient id="T" cx="76.8555" cy="67.0522" r="180.4014" gradientUnits="userSpaceOnUse"><stop offset="0.1011" style="stop-color:#fcfcfc"/><stop offset="0.2369" style="stop-color:#f5f5f5"/><stop offset="0.4705" style="stop-color:#e2e2e2"/><stop offset="0.7717" style="stop-color:#bfc0c0"/><stop offset="1" style="stop-color:#9f9fa0"/></radialGradient><path fill="url(#T)" d="M190.705 74.759c.049.825.471 2.028 1.027 2.888.902 1.407 2.068 1.623 3.066.978 1.109-.715 1.215-1.746 1.219-3.569-.076-2.905 1.023-4.732 2.406-5.624 2.449-1.578 5.537-1.256 7.594 1.936.635.999.98 2.126 1 2.755l-2.863 1.167c-.004-.601-.18-1.416-.738-2.281-.811-1.271-1.977-1.385-2.793-.859-.904.581-1.092 1.343-1.021 3.638.074 2.803-.984 4.539-2.594 5.575-2.785 1.796-5.947.915-7.875-2.076-.783-1.218-1.244-2.627-1.266-3.313l2.838-1.215z"/><radialGradient id="U" cx="76.8662" cy="67.0586" r="180.3887" gradientUnits="userSpaceOnUse"><stop offset="0.1011" style="stop-color:#fcfcfc"/><stop offset="0.2369" style="stop-color:#f5f5f5"/><stop offset="0.4705" style="stop-color:#e2e2e2"/><stop offset="0.7717" style="stop-color:#bfc0c0"/><stop offset="1" style="stop-color:#9f9fa0"/></radialGradient><path fill="url(#U)" d="m212.434 83.561-16.537 7.709-1.482-3.204 16.537-7.704 1.482 3.199z"/><radialGradient id="V" cx="76.833" cy="67.0532" r="180.434" gradientUnits="userSpaceOnUse"><stop offset="0.1011" style="stop-color:#fcfcfc"/><stop offset="0.2369" style="stop-color:#f5f5f5"/><stop offset="0.4705" style="stop-color:#e2e2e2"/><stop offset="0.7717" style="stop-color:#bfc0c0"/><stop offset="1" style="stop-color:#9f9fa0"/></radialGradient><path fill="url(#V)" d="m212.875 93.856-1.02-3.042 3.115-.954 2.904 9.531-3.123.958-.842-3.12-14.4 4.425-1.035-3.373 14.401-4.425z"/><radialGradient id="W" cx="76.8496" cy="67.0571" r="180.4077" gradientUnits="userSpaceOnUse"><stop offset="0.1011" style="stop-color:#fcfcfc"/><stop offset="0.2369" style="stop-color:#f5f5f5"/><stop offset="0.4705" style="stop-color:#e2e2e2"/><stop offset="0.7717" style="stop-color:#bfc0c0"/><stop offset="1" style="stop-color:#9f9fa0"/></radialGradient><path fill="url(#W)" d="m211.521 111.217.008.056 8.518.92.289 3.61-11.482-2.682-7.008.879-.461-3.513 6.898-.853 10.637-5.33.619 3.741-8.018 3.172z"/><path fill="#FFF" d="M117.307 161.22c-.697.387-2.035.795-2.721 1.066a5.71 5.71 0 0 1-2.171.418 7.43 7.43 0 0 1-1.835-.246c-.619-.172-1.343-.665-1.844-1.012-.503-.35-.755-.553-1.077-1.1-.321-.551-.485-1.207-.485-1.977 0-.928.188-1.727.562-2.385a4.81 4.81 0 0 1 1.441-1.627 6.139 6.139 0 0 1 1.989-.951 8.264 8.264 0 0 1 2.183-.297c.907 0 1.733.164 2.48.507.75.339 1.395.808 1.934 1.423a6.398 6.398 0 0 1 1.256 2.18c.301.842.451 1.76.451 2.766 0 1.191-.174 2.26-.508 3.225-.334.957-.814 1.787-1.441 2.465a6.088 6.088 0 0 1-2.229 1.564c-.862.357-1.832.533-2.892.533-.744 0-1.373-.062-1.892-.176a5.942 5.942 0 0 1-1.297-.436c-.341-.172-.616-.334-.838-.462-.216-.142-.389-.21-.514-.21-.183 0-.021.306-.153.414l-.515-.438 1.479-3.01.537.424c0 .09-.227-.057-.204.064a.928.928 0 0 0 .138.332c.16.234.382.445.664.611.283.177.575.32.897.431.324.115.652.19.979.233.324.045.622.07.884.07 2.124 0 3.424-.984 3.905-2.965l.837-1.434zm-5.344-5.617a2.888 2.888 0 0 0-1.014.41 2.026 2.026 0 0 0-.708.766c-.17.314-.259.709-.259 1.182 0 .469.089.865.259 1.18.173.325.411.578.708.776.298.181.628.317 1.014.399.379.076.766.124 1.166.124.392 0 .772-.048 1.15-.124.38-.082.719-.219 1.016-.399.297-.198.611-.522.787-.847.17-.311.314-.699.314-1.172 0-.471.045-.663-.121-.979-.18-.322-.684-.717-.98-.906a2.914 2.914 0 0 0-1.016-.41 5.528 5.528 0 0 0-1.15-.127c-.4 0-.787.046-1.166.127zM122.146 162.821l-.248.347c0 .423.02.481.379.806.369.33.791.61 1.297.843.5.219 1.029.396 1.58.517.547.113 1.01.18 1.389.18.297 0 .652-.035 1.053-.104a3.995 3.995 0 0 0 1.129-.342c.348-.166.65-.385.9-.672.236-.287.367-.658.367-1.115 0-.441-.119-.791-.354-1.057a2.364 2.364 0 0 0-.861-.624 3.687 3.687 0 0 0-1.092-.285 8.083 8.083 0 0 0-.996-.075c-.398 0-.74.044-1.031.131-.279.081-.379.617-.477.947l-.395-.334v-3.725h.305l.393.354c.057.291-.148.271.133.373.32.119.674.18 1.072.18.26 0 .568-.025.908-.084.352-.053.676-.149.973-.298a2.35 2.35 0 0 0 .771-.601c.211-.252.32-.574.32-.957 0-.367-.096-.656-.281-.89a2 2 0 0 0-.738-.528 4.06 4.06 0 0 0-1.008-.264 11.24 11.24 0 0 0-1.119-.068 5.51 5.51 0 0 0-1.359.175 5.983 5.983 0 0 0-1.26.432 4.152 4.152 0 0 0-.93.604c-.256.221-.377.438-.377.652 0 .076.012.166.029.266.012.105.211.684.246.771l-.393-.314-1.975-2.801.297-.254a.698.698 0 0 0 .414.137c.092 0 .236-.094.457-.312.229-.22.553-.44.98-.702.422-.258.969-.488 1.633-.707.67-.211 1.48-.313 2.436-.313.639 0 1.283.072 1.928.217a6.026 6.026 0 0 1 1.756.693c.535.33.975.738 1.307 1.24.34.502.504 1.109.504 1.816a3.34 3.34 0 0 1-.521 1.826c-.342.557-.814.91-1.408 1.057l-.203.471c.699.18 1.482.129 1.932.666.453.541.678 1.219.678 2.041 0 .936-.213 1.699-.623 2.301a4.738 4.738 0 0 1-1.559 1.443 5.984 5.984 0 0 1-2.049.715 14.02 14.02 0 0 1-2.105.176 8.707 8.707 0 0 1-2.076-.236 10.102 10.102 0 0 1-1.697-.539c-.49-.207-.898-.398-1.217-.57-.324-.177-.551-.264-.682-.264-.078 0 .119.145.063.188-.059.034-.223.185-.289.229l-.387-.336 1.428-3.946.27.165.383.358zM102.709 157.493c-.148.014-1.35.027-1.508.072a1.617 1.617 0 0 0-.398.189c-.125.086-.104.551-.156.699l-.4-.359v-3.451h.296l.398.346c.148.064.115.095.247.095.283 0 .517-.1.701-.292.193-.19.29-.42.29-.699 0-.256-.097-.254-.208-.324l-.383-.337v-.321h3.979l.382.342c-.193.039-.741.088-.874.174a.49.49 0 0 0-.196.414V166.6c0 .309.069.523.196.616.133.104-.03.268.135.268l-3.366.55-.392-.334v-.33a.64.64 0 0 0 .431-.153c.125-.093.186-.308.186-.616v-8.426l.64-.682z"/><g fill="#062453"><path d="M106.311 168.016v.337h-4.072l-.382-.302c.166 0 .688-.077.816-.183.117-.098.184-.302.184-.611v-9.166a3.218 3.218 0 0 0-.869.126 2.059 2.059 0 0 0-.405.185.713.713 0 0 0-.257.349h-.294l-.421-.349.408-2.795c0 .168.385-.029.537.035.146.06.288.091.418.091a.928.928 0 0 0 .705-.288.931.931 0 0 0 .288-.688c0-.27-.054-.428-.158-.498-.109-.078.001-.303-.176-.341l3.298-.486.427.327v.327a1.272 1.272 0 0 0-.497.195.485.485 0 0 0-.199.413v13.043c0 .309-.069-.102.058 0 .102.074.171-.053.29-.031l.301.31zM109.338 164.37l.099.262c0 .085.211.107.237.235.018.13.071.237.131.332.163.234.385.44.667.612.283.17.579.318.898.424.318.116.652.191.977.236.327.039.625.064.884.064 2.568 0 3.931-1.436 4.101-4.325a18.18 18.18 0 0 1-2.076.999 5.857 5.857 0 0 1-2.176.408c-.596 0-1.2-.076-1.826-.242a5.387 5.387 0 0 1-1.69-.773 4.044 4.044 0 0 1-1.238-1.337c-.321-.546-.484-1.208-.484-1.974 0-.934.189-1.727.559-2.385a5.026 5.026 0 0 1 1.443-1.629 6.12 6.12 0 0 1 1.992-.949 8.243 8.243 0 0 1 2.183-.298c.899 0 1.732.165 2.473.502a5.7 5.7 0 0 1 1.941 1.425 6.56 6.56 0 0 1 1.256 2.184c.305.838.451 1.758.451 2.77 0 1.186-.172 2.254-.51 3.215-.334.958-.814 1.785-1.438 2.465a6.214 6.214 0 0 1-2.232 1.566c-.861.355-1.828.535-2.897.535-.736 0-1.373-.058-1.883-.18a5.52 5.52 0 0 1-1.295-.436 12.016 12.016 0 0 1-.843-.46c-.208-.138-.387-.21-.514-.21-.178 0-.222-.049-.347.059l-.6-.666 1.757-2.429zm3.294-7.844a2.86 2.86 0 0 0-1.012.402 2.094 2.094 0 0 0-.711.766c-.163.314-.255.707-.255 1.18 0 .479.092.869.255 1.188.173.315.413.574.711.772.291.183.628.321 1.012.394.377.092.759.125 1.161.125a4.89 4.89 0 0 0 1.159-.125 2.922 2.922 0 0 0 1.008-.394c.303-.198.531-.457.705-.772.176-.318.26-.709.26-1.188 0-.473-.084-.865-.26-1.18a2.068 2.068 0 0 0-.705-.766 2.893 2.893 0 0 0-1.008-.402 5.159 5.159 0 0 0-1.159-.127c-.402 0-.784.04-1.161.127zM121.035 167.085l-.221-.085-.371-.431 1.703-3.769.316.339c-.02.035-.055.348-.055.438v.19c0 .425.182.794.539 1.12a4.91 4.91 0 0 0 1.303.84 7.514 7.514 0 0 0 1.574.522 6.523 6.523 0 0 0 1.391.177 6.26 6.26 0 0 0 1.049-.098 4.052 4.052 0 0 0 1.127-.344c.354-.16.648-.383.895-.669.24-.288.369-.657.369-1.116 0-.443-.117-.793-.35-1.063a2.54 2.54 0 0 0-.863-.627 4.407 4.407 0 0 0-1.094-.283 7.763 7.763 0 0 0-.986-.066c-.396 0-.742.029-1.035.125-.178.063-.33.119-.428.451h-.303l-.422-.43.58-3.131c.031.367.211.607.529.723.318.129.682.178 1.078.178.26 0 .561-.02.91-.079a3.54 3.54 0 0 0 .965-.298c.305-.143.557-.342.768-.607.211-.25.322-.566.322-.949 0-.361-.094-.656-.283-.887a1.893 1.893 0 0 0-.738-.529 3.627 3.627 0 0 0-1.002-.264 9.452 9.452 0 0 0-1.121-.064c-.443 0-.895.051-1.355.162a6.224 6.224 0 0 0-1.26.438 4.266 4.266 0 0 0-.932.605c-.252.217-.377.436-.377.654 0 .073.018.159.031.264.012.102.039.201.074.289l-.221.164-1.973-2.799.295-.248c.129.09.271.139.416.139.082 0 .23-.105.451-.314.23-.22.553-.447.982-.703.426-.264.969-.49 1.639-.699.664-.221 1.48-.319 2.432-.319.635 0 1.277.07 1.92.214a6.167 6.167 0 0 1 1.768.695c.531.325.973.73 1.307 1.236.336.506.496 1.111.496 1.828 0 .65-.172 1.258-.512 1.814-.352.558-.818.914-1.416 1.055v.058a3.288 3.288 0 0 1 1.729 1.083c.457.545.676 1.215.676 2.043 0 .934-.203 1.699-.621 2.303a4.735 4.735 0 0 1-1.563 1.435 5.783 5.783 0 0 1-2.045.718c-.75.122-1.445.18-2.104.18a9.172 9.172 0 0 1-2.074-.232 11.438 11.438 0 0 1-1.701-.547 12.762 12.762 0 0 1-1.219-.574c-.316-.162-.59-.318-.723-.318l-.266.062zM136.082 164.37l.098.262c0 .085.213.107.238.235.02.13.07.237.139.332.156.234.381.44.658.612.283.17.578.318.9.424.324.116.654.191.98.236.324.039.621.064.881.064 2.568 0 3.93-1.436 4.1-4.325a17.71 17.71 0 0 1-2.076.999 5.83 5.83 0 0 1-2.176.408c-.59 0-1.201-.076-1.826-.242a5.434 5.434 0 0 1-1.693-.773 4.021 4.021 0 0 1-1.23-1.337c-.324-.546-.486-1.208-.486-1.974 0-.934.191-1.727.557-2.385a4.963 4.963 0 0 1 1.445-1.629 6.11 6.11 0 0 1 1.988-.949 8.3 8.3 0 0 1 2.184-.298c.904 0 1.732.165 2.477.502.754.341 1.396.812 1.939 1.425s.967 1.346 1.254 2.184c.303.838.447 1.758.447 2.77 0 1.186-.166 2.254-.5 3.215-.336.958-.814 1.785-1.438 2.465a6.273 6.273 0 0 1-2.234 1.566c-.863.355-1.832.535-2.896.535-.742 0-1.371-.058-1.887-.18a5.606 5.606 0 0 1-1.299-.436 15.12 15.12 0 0 1-.842-.46c-.209-.138-.379-.21-.514-.21-.176 0-.219-.049-.346.059l-.594-.666 1.752-2.429zm3.291-7.844a2.93 2.93 0 0 0-1.012.402 2.198 2.198 0 0 0-.707.766c-.168.314-.26.707-.26 1.18 0 .479.092.869.26 1.188.18.315.414.574.707.772a2.98 2.98 0 0 0 1.012.394c.383.092.766.125 1.168.125.393 0 .775-.033 1.158-.125a2.964 2.964 0 0 0 1.01-.394 2.24 2.24 0 0 0 .707-.772c.17-.318.252-.709.252-1.188 0-.473-.082-.865-.252-1.18-.178-.314-.412-.574-.707-.766s-.633-.324-1.01-.402a5.188 5.188 0 0 0-1.158-.127c-.402 0-.785.04-1.168.127z"/></g><path fill="#FFF" d="M144.053 161.22c-.703.387-2.031.795-2.723 1.066a5.73 5.73 0 0 1-2.174.418 7.503 7.503 0 0 1-1.834-.246c-.619-.172-1.34-.665-1.838-1.012-.508-.35-.76-.553-1.08-1.1-.324-.551-.488-1.207-.488-1.977 0-.928.191-1.727.568-2.385a4.774 4.774 0 0 1 1.439-1.627 6.055 6.055 0 0 1 1.984-.951 8.297 8.297 0 0 1 2.186-.297c.902 0 1.73.164 2.477.507.752.339 1.4.808 1.941 1.423a6.635 6.635 0 0 1 1.256 2.18c.297.842.443 1.76.443 2.766 0 1.191-.166 2.26-.506 3.225-.332.957-.814 1.787-1.436 2.465a6.114 6.114 0 0 1-2.234 1.564c-.863.357-1.834.533-2.895.533-.74 0-1.375-.062-1.887-.176a5.85 5.85 0 0 1-1.297-.436 13.13 13.13 0 0 1-.836-.462c-.215-.142-.391-.21-.518-.21-.178 0-.023.306-.152.414l-.516-.438 1.477-3.01.545.424c0 .09-.232-.057-.207.064a.843.843 0 0 0 .135.332c.164.234.387.445.668.611.279.177.57.32.896.431a4.6 4.6 0 0 0 .975.233c.33.045.625.07.887.07 2.127 0 3.428-.984 3.906-2.965l.838-1.434zm-5.344-5.617a2.948 2.948 0 0 0-1.018.41 2.142 2.142 0 0 0-.711.766c-.162.314-.256.709-.256 1.182 0 .469.094.865.256 1.18.182.325.418.578.711.776.299.181.637.317 1.018.399.375.076.76.124 1.164.124.396 0 .773-.048 1.154-.124a3.325 3.325 0 0 0 1.014-.399c.297-.198.611-.522.787-.847a2.43 2.43 0 0 0 .314-1.172c0-.471.043-.663-.125-.979-.174-.322-.68-.717-.977-.906a2.96 2.96 0 0 0-1.014-.41 5.55 5.55 0 0 0-1.154-.127c-.403 0-.788.046-1.163.127z"/><radialGradient id="X" cx="82.625" cy="75.3105" r="133.8021" gradientUnits="userSpaceOnUse"><stop offset="0" style="stop-color:#8786bb"/><stop offset="0.0638" style="stop-color:#6a6cac"/><stop offset="0.1486" style="stop-color:#45529c"/><stop offset="0.2273" style="stop-color:#284192"/><stop offset="0.2968" style="stop-color:#0f398d"/><stop offset="0.35" style="stop-color:#04368b"/><stop offset="1" style="stop-color:#092757"/></radialGradient><path fill="url(#X)" d="m109.055 163.788.298.17c0 .091.012.195.04.323.02.124.066.241.13.334a2.3 2.3 0 0 0 .667.612c.283.171.578.316.902.423.314.112.646.196.971.235.328.046.629.07.888.07 2.564 0 3.929-1.445 4.099-4.323-.695.385-1.387.716-2.077.989a5.824 5.824 0 0 1-2.174.414 7.651 7.651 0 0 1-1.831-.242 5.427 5.427 0 0 1-1.692-.771 4.104 4.104 0 0 1-1.233-1.344c-.316-.544-.48-1.203-.48-1.975 0-.926.183-1.727.56-2.381a4.868 4.868 0 0 1 1.442-1.633 6.14 6.14 0 0 1 1.983-.942 7.97 7.97 0 0 1 2.181-.297c.905 0 1.733.163 2.485.501a5.63 5.63 0 0 1 1.938 1.426 6.306 6.306 0 0 1 1.252 2.176c.299.842.453 1.763.453 2.775 0 1.191-.17 2.262-.51 3.215-.334.961-.816 1.783-1.436 2.467a6.204 6.204 0 0 1-2.232 1.564c-.862.35-1.833.533-2.899.533-.736 0-1.373-.063-1.883-.178-.52-.119-.955-.263-1.295-.443a7.568 7.568 0 0 1-.834-.457c-.219-.137-.394-.209-.525-.209a.724.724 0 0 0-.464.168l-.198-.194 1.474-3.006zm3.29-7.85a2.989 2.989 0 0 0-1.014.408 2.052 2.052 0 0 0-.707.762c-.169.318-.258.713-.258 1.185 0 .476.089.87.258 1.188.173.319.414.569.707.764.298.189.637.324 1.014.406a5.523 5.523 0 0 0 2.323 0 3.075 3.075 0 0 0 1.012-.406c.301-.194.533-.444.709-.764.168-.318.25-.713.25-1.188 0-.472-.082-.866-.25-1.185a2.024 2.024 0 0 0-.709-.762 2.954 2.954 0 0 0-1.012-.408 5.664 5.664 0 0 0-1.159-.125c-.397 0-.78.045-1.164.125z"/><radialGradient id="Y" cx="82.6187" cy="75.3105" r="133.7965" gradientUnits="userSpaceOnUse"><stop offset="0" style="stop-color:#8786bb"/><stop offset="0.0638" style="stop-color:#6a6cac"/><stop offset="0.1486" style="stop-color:#45529c"/><stop offset="0.2273" style="stop-color:#284192"/><stop offset="0.2968" style="stop-color:#0f398d"/><stop offset="0.35" style="stop-color:#04368b"/><stop offset="1" style="stop-color:#092757"/></radialGradient><path fill="url(#Y)" d="m135.803 163.788.293.17c0 .091.018.195.047.323a.727.727 0 0 0 .129.334c.166.231.383.438.666.612.277.171.574.316.898.423.32.112.646.196.973.235.328.046.629.07.889.07 2.566 0 3.928-1.445 4.096-4.323-.691.385-1.389.716-2.074.989a5.849 5.849 0 0 1-2.176.414c-.59 0-1.201-.087-1.832-.242-.623-.172-1.195-.42-1.695-.771-.5-.344-.91-.797-1.232-1.344-.314-.544-.479-1.203-.479-1.975 0-.926.186-1.727.561-2.381a4.925 4.925 0 0 1 1.439-1.633 6.215 6.215 0 0 1 1.988-.942 7.943 7.943 0 0 1 2.18-.297c.9 0 1.73.163 2.482.501a5.595 5.595 0 0 1 1.941 1.426 6.481 6.481 0 0 1 1.258 2.176c.295.842.441 1.763.441 2.775 0 1.191-.164 2.262-.508 3.215a6.925 6.925 0 0 1-1.434 2.467 6.238 6.238 0 0 1-2.232 1.564c-.861.35-1.834.533-2.9.533-.732 0-1.365-.063-1.879-.178-.52-.119-.957-.263-1.301-.443a7.334 7.334 0 0 1-.832-.457c-.221-.137-.395-.209-.523-.209a.73.73 0 0 0-.467.168l-.195-.194 1.478-3.006zm3.289-7.85a2.98 2.98 0 0 0-1.02.408 2.095 2.095 0 0 0-.701.762c-.166.318-.26.713-.26 1.185 0 .476.094.87.26 1.188.172.319.416.569.701.764.299.189.637.324 1.02.406a5.45 5.45 0 0 0 1.162.123c.398 0 .773-.041 1.156-.123a3.126 3.126 0 0 0 1.018-.406c.297-.194.527-.444.705-.764.168-.318.256-.713.256-1.188 0-.472-.088-.866-.256-1.185a2.063 2.063 0 0 0-.705-.762 3.001 3.001 0 0 0-1.018-.408 5.569 5.569 0 0 0-1.156-.125c-.4 0-.783.045-1.162.125z"/><radialGradient id="Z" cx="82.6563" cy="75.3105" r="133.7754" gradientUnits="userSpaceOnUse"><stop offset="0" style="stop-color:#8786bb"/><stop offset="0.0638" style="stop-color:#6a6cac"/><stop offset="0.1486" style="stop-color:#45529c"/><stop offset="0.2273" style="stop-color:#284192"/><stop offset="0.2968" style="stop-color:#0f398d"/><stop offset="0.35" style="stop-color:#04368b"/><stop offset="1" style="stop-color:#092757"/></radialGradient><path fill="url(#Z)" d="m120.883 155.597.295-.246a.746.746 0 0 0 .416.132c.088 0 .232-.104.459-.314.225-.21.547-.442.975-.702.428-.264.973-.492 1.643-.697.666-.215 1.475-.317 2.428-.317.643 0 1.281.062 1.93.206.65.15 1.23.383 1.76.711.533.316.975.725 1.305 1.229.334.503.5 1.109.5 1.818 0 .662-.166 1.264-.514 1.82-.348.561-.816.91-1.41 1.058v.058a3.21 3.21 0 0 1 1.727 1.083c.453.54.676 1.216.676 2.044 0 .928-.209 1.699-.625 2.297a4.782 4.782 0 0 1-1.561 1.44 5.8 5.8 0 0 1-2.051.71c-.74.121-1.445.184-2.096.184-.742 0-1.436-.08-2.076-.231a10.498 10.498 0 0 1-1.697-.546c-.492-.207-.9-.398-1.217-.576-.326-.166-.561-.255-.686-.255-.08 0-.15.017-.213.056a2.139 2.139 0 0 1-.18.104l-.227-.075 1.434-3.94.271.157a.47.47 0 0 0-.029.194v.188c0 .42.186.802.549 1.125.359.338.787.612 1.291.836.502.23 1.033.405 1.576.529.555.111 1.02.177 1.395.177.295 0 .648-.031 1.051-.101a4.107 4.107 0 0 0 1.127-.346 2.82 2.82 0 0 0 .895-.666c.244-.293.371-.664.371-1.119 0-.443-.119-.797-.348-1.059a2.472 2.472 0 0 0-.869-.626 4.048 4.048 0 0 0-1.086-.283 8.14 8.14 0 0 0-.994-.069c-.4 0-.738.037-1.029.123-.287.081-.479.283-.576.613h-.297v-3.725h.297c.033.365.209.609.527.724.32.13.678.183 1.078.183.256 0 .564-.023.912-.08.342-.057.664-.156.965-.301.303-.148.555-.35.768-.604.211-.25.322-.576.322-.953 0-.367-.094-.654-.285-.887a1.84 1.84 0 0 0-.73-.529 3.783 3.783 0 0 0-1.008-.266 10.01 10.01 0 0 0-1.119-.066c-.443 0-.895.057-1.357.172a5.39 5.39 0 0 0-1.26.435 3.868 3.868 0 0 0-.93.601c-.252.219-.377.439-.377.656 0 .078.018.164.025.26.016.104.041.205.074.289l-.219.17-1.976-2.803z"/><radialGradient id="aa" cx="82.6494" cy="75.3105" r="133.7911" gradientUnits="userSpaceOnUse"><stop offset="0" style="stop-color:#8786bb"/><stop offset="0.0638" style="stop-color:#6a6cac"/><stop offset="0.1486" style="stop-color:#45529c"/><stop offset="0.2273" style="stop-color:#284192"/><stop offset="0.2968" style="stop-color:#0f398d"/><stop offset="0.35" style="stop-color:#04368b"/><stop offset="1" style="stop-color:#092757"/></radialGradient><path fill="url(#aa)" d="M101.835 167.706c.171 0 .31-.047.433-.152.122-.1.188-.302.188-.617v-9.154c-.12 0-.25.002-.405.027-.16.012-.308.042-.462.088-.152.053-.28.111-.407.193a.638.638 0 0 0-.253.344h-.293v-3.45h.293c0 .159.074.276.224.335.153.068.285.099.421.099a.954.954 0 0 0 .705-.294.917.917 0 0 0 .283-.697c0-.252-.048-.414-.155-.484a1.139 1.139 0 0 0-.435-.174v-.317h3.977v.317a1.483 1.483 0 0 0-.491.193.483.483 0 0 0-.196.414v12.561c0 .315.067.518.196.617.133.105.28.152.448.152v.33h-4.071v-.331z"/></svg>