<?xml version="1.0" encoding="UTF-8" standalone="no"?>
<!-- Created with Inkscape (http://www.inkscape.org/) -->

<svg
   xmlns:dc="http://purl.org/dc/elements/1.1/"
   xmlns:cc="http://creativecommons.org/ns#"
   xmlns:rdf="http://www.w3.org/1999/02/22-rdf-syntax-ns#"
   xmlns:svg="http://www.w3.org/2000/svg"
   xmlns="http://www.w3.org/2000/svg"
   xmlns:sodipodi="http://sodipodi.sourceforge.net/DTD/sodipodi-0.dtd"
   xmlns:inkscape="http://www.inkscape.org/namespaces/inkscape"
   id="svg4173"
   version="1.1"
   inkscape:version="0.91 r13725"
   xml:space="preserve"
   width="282.49631"
   height="80.608009"
   viewBox="0 0 282.4963 80.608009"
   sodipodi:docname="logo.svg"><metadata
     id="metadata4179"><rdf:RDF><cc:Work
         rdf:about=""><dc:format>image/svg+xml</dc:format><dc:type
           rdf:resource="http://purl.org/dc/dcmitype/StillImage" /><dc:title></dc:title></cc:Work></rdf:RDF></metadata><defs
     id="defs4177"><clipPath
       clipPathUnits="userSpaceOnUse"
       id="clipPath4231"><path
         d="m 21.596,21.864 64.699,0 0,67.23 -64.699,0 0,-67.23 z"
         id="path4233"
         inkscape:connector-curvature="0" /></clipPath><clipPath
       clipPathUnits="userSpaceOnUse"
       id="clipPath4243"><path
         d="m 20.331,19.935 67.266,0 0,72.624 -67.266,0 0,-72.624 z"
         id="path4245"
         inkscape:connector-curvature="0" /></clipPath><clipPath
       clipPathUnits="userSpaceOnUse"
       id="clipPath4415"><path
         d="m 21.596,21.864 64.699,0 0,67.23 -64.699,0 0,-67.23 z"
         id="path4417"
         inkscape:connector-curvature="0" /></clipPath><clipPath
       clipPathUnits="userSpaceOnUse"
       id="clipPath4431"><path
         d="m 20.331,19.935 67.266,0 0,72.624 -67.266,0 0,-72.624 z"
         id="path4433"
         inkscape:connector-curvature="0" /></clipPath><clipPath
       clipPathUnits="userSpaceOnUse"
       id="clipPath4451"><path
         d="m 21.596,21.864 64.699,0 0,67.23 -64.699,0 0,-67.23 z"
         id="path4453"
         inkscape:connector-curvature="0" /></clipPath><clipPath
       clipPathUnits="userSpaceOnUse"
       id="clipPath4467"><path
         d="m 20.331,19.935 67.266,0 0,72.624 -67.266,0 0,-72.624 z"
         id="path4469"
         inkscape:connector-curvature="0" /></clipPath><clipPath
       clipPathUnits="userSpaceOnUse"
       id="clipPath5327"><path
         d="m 21.596,21.864 64.699,0 0,67.23 -64.699,0 0,-67.23 z"
         id="path5329"
         inkscape:connector-curvature="0" /></clipPath><clipPath
       clipPathUnits="userSpaceOnUse"
       id="clipPath5343"><path
         d="m 20.331,19.935 67.266,0 0,72.624 -67.266,0 0,-72.624 z"
         id="path5345"
         inkscape:connector-curvature="0" /></clipPath><clipPath
       clipPathUnits="userSpaceOnUse"
       id="clipPath5343-4"><path
         d="m 20.331,19.935 67.266,0 0,72.624 -67.266,0 0,-72.624 z"
         id="path5345-2"
         inkscape:connector-curvature="0" /></clipPath><clipPath
       clipPathUnits="userSpaceOnUse"
       id="clipPath5327-1"><path
         d="m 21.596,21.864 64.699,0 0,67.23 -64.699,0 0,-67.23 z"
         id="path5329-6"
         inkscape:connector-curvature="0" /></clipPath><clipPath
       clipPathUnits="userSpaceOnUse"
       id="clipPath4467-1"><path
         d="m 20.331,19.935 67.266,0 0,72.624 -67.266,0 0,-72.624 z"
         id="path4469-8"
         inkscape:connector-curvature="0" /></clipPath><clipPath
       clipPathUnits="userSpaceOnUse"
       id="clipPath4451-2"><path
         d="m 21.596,21.864 64.699,0 0,67.23 -64.699,0 0,-67.23 z"
         id="path4453-7"
         inkscape:connector-curvature="0" /></clipPath><clipPath
       clipPathUnits="userSpaceOnUse"
       id="clipPath4431-4"><path
         d="m 20.331,19.935 67.266,0 0,72.624 -67.266,0 0,-72.624 z"
         id="path4433-7"
         inkscape:connector-curvature="0" /></clipPath><clipPath
       clipPathUnits="userSpaceOnUse"
       id="clipPath4415-5"><path
         d="m 21.596,21.864 64.699,0 0,67.23 -64.699,0 0,-67.23 z"
         id="path4417-7"
         inkscape:connector-curvature="0" /></clipPath><clipPath
       clipPathUnits="userSpaceOnUse"
       id="clipPath4243-4"><path
         d="m 20.331,19.935 67.266,0 0,72.624 -67.266,0 0,-72.624 z"
         id="path4245-0"
         inkscape:connector-curvature="0" /></clipPath><clipPath
       clipPathUnits="userSpaceOnUse"
       id="clipPath4231-2"><path
         d="m 21.596,21.864 64.699,0 0,67.23 -64.699,0 0,-67.23 z"
         id="path4233-6"
         inkscape:connector-curvature="0" /></clipPath><clipPath
       id="clipPath4178"
       clipPathUnits="userSpaceOnUse"><path
         inkscape:connector-curvature="0"
         id="path4180"
         d="m 0,0 71.998,0 0,72.002 L 0,72.002 0,0 Z" /></clipPath><pattern
       id="pattern4182"
       height="72.002"
       width="71.998"
       y="0"
       x="0"
       patternUnits="userSpaceOnUse"
       patternTransform="matrix(1.00142,0,0,1.00142,1163.92,290.665)"><g
         id="g4184"><g
           id="g4186"
           clip-path="url(#clipPath4178)"><g
             id="g4188"
             transform="translate(68.498,65)"><path
               id="path4190"
               style="fill:none;stroke:#231f20;stroke-opacity:1;stroke-width:0.25;stroke-linecap:butt;stroke-linejoin:miter;stroke-miterlimit:4;stroke-dasharray:none"
               d="M 0,0 14.666,0 M -1.667,-6.666 13,-6.666 M 1.833,6.836 l 14.667,0 m -13.667,-30.834 14.667,0 M 7.334,4.168 l -14.668,0 m 18.168,-5.5 -14.668,0 m -3.167,-8.174 14.666,0 m -10.999,-49.002 14.667,0 m -18.334,-4.666 14.667,0 m -9.333,2 14.667,0 m -19.334,5 14.667,0 m -10,8.668 14.667,0 m -18.001,-4.334 14.667,0 m -1.166,35.51 -14.666,0 M 9,-19.83 l -14.666,0 m 17.666,-2 -14.666,0 m 0.332,10.166 14.668,0 m -4.168,-14.176 -14.666,0 m 18.666,-2 -14.666,0 m 9,-2.332 -14.666,0 m 2.832,-14.334 14.668,0 m -12.668,4.334 14.667,0 m -14.667,5.332 14.667,0 m -12,-2.666 14.666,0 m -12.666,5 14.666,0 m -74.831,33.84 0,-14.666 m 2.5,11.666 0,-14.668 m -3.666,5.002 0,-14.666 m 7.334,14.332 0,-14.668 m -9.668,21.668 0,-14.668 m 12,17.668 0,-14.668 m 5.5,14.668 0,-14.668 m 1.334,11.002 0,-14.666 m -3.834,23.832 0,-14.666 m -6.5,12.666 0,-14.666 m -13.5,8.834 14.668,0 M -71.998,0 -57.332,0 m -16.334,-6.666 14.668,0 m 3.666,6.334 14.668,0 m -19.834,-1.834 14.666,0 m -11,-8.174 14.668,0 m -21.334,2.508 14.668,0 m 18.833,4.832 0,-14.664 M -32.498,-6 l 0,-14.664 m 6.001,11.666 0,-14.666 m 1.334,7.33 0,-14.664 m 1.334,22 0,-14.666 M -38.498,-6 l 0,-14.664 m -10.166,11.332 0,-14.666 m 8.5,24.498 0,-14.664 m -1.666,17.998 0,-14.666 m 6.832,9.666 0,-14.668 m 8.501,8.17 -14.667,0 m 6.334,1.998 -14.668,0 m 23.501,-5.498 -14.667,0 m 9,-3.842 -14.668,0 m 23.335,1.842 -14.667,0 m 40.006,18.998 0,-14.666 m -4.674,14.666 0,-14.666 m -7.834,14.666 0,-14.666 m 17.5,13 -14.666,0 m 13.166,-2.5 -14.666,0 m 10.666,-4.508 -14.666,0 m 6.666,1.332 -14.666,0 m 31.666,0.176 -14.666,0 m -23.165,5.832 0,-14.666 m 4.5,11.666 0,-14.666 m -6,11.666 0,-14.664 m 12.665,18.33 0,-14.664 m 9.5,10.666 0,-14.666 m -7.168,23.5 0,-14.668 M -18.334,6 l 0,-14.666 m -10.332,13.334 14.666,0 m -7.497,-1.834 14.665,0 m -23,-1.666 14.666,0 m -13.831,-4.834 14.665,0 m -9,-4.84 14.666,0 m -11,2 14.669,0 m -27.001,0.84 14.666,0 m -19.666,11 0,-14.666 m -1.668,15.334 0,-14.666 m -6,13.998 0,-14.666 m -21.832,-22.002 0,-14.664 m -0.5,31.164 0,-14.664 m 1.166,26.666 0,-14.666 m -2,17.166 0,-14.666 m -2.334,21.834 14.668,0 m -6.334,-1.668 14.666,0 m -20.166,-2.5 14.666,0 m 7.334,-0.666 14.666,0 m -19.666,1.332 14.666,0 m -12.666,2.668 14.666,0 M -43,-2.332 l 14.668,0 m 1.5,-14.84 -14.666,0 m 18.666,-2 -14.666,0 m 9.001,-2.334 -14.667,0 m -7.168,-5.828 0,-14.664 m 3.5,8.664 0,-14.664 m -5.666,18.334 -14.666,0 m 25.666,-4 -14.668,0 m 9.834,-1.834 -14.666,0 m 17.666,-2 -14.666,0 m 27.501,19 0,-14.666 m 1.334,8.83 0,-14.664 m -16.169,19.164 0,-14.664 m 3.166,20 0,-14.666 m 5.334,6.33 0,-14.664 m 3,20.164 0,-14.664 m -1.666,15 0,-14.666 m -4.834,12.33 0,-14.664 m -3.334,1.158 14.669,0 m -12.001,-1.332 14.666,0 m -12,2.666 14.666,0 m -14.666,5.334 14.666,0 m -12,-2.668 14.666,0 m -1.334,2.668 14.667,0 m -25.999,2.332 14.666,0 m 11.999,14.334 14.667,0 m -30.666,-7 14.666,0 m -16.666,2.334 14.666,0 m -41.998,-15.826 14.666,0 m -14.334,2 14.668,0 m -0.834,-10.842 -14.666,0 m 6.332,25.006 0,-14.664 m -2.166,18.166 0,-14.666 m -9,6 14.668,0 m -21.668,1.334 14.668,0 m -13.002,2 14.668,0 m -16,2.666 14.668,0 m -5.334,0 14.666,0 m -21.166,-23.67 0,-14.666 m 2.5,11.666 0,-14.666 m -3.666,5 0,-14.666 m -3,17.002 0,-14.67 m 10.334,12 0,-14.666 m 2.332,24.666 0,-14.666 m 9.5,23.004 0,-14.668 M -10,-53 l 0,-14.666 m 2.834,27.332 0,-14.666 m -3.334,-2 -14.666,0 M -6,-61.166 l -14.666,0 m 12,-2 -14.666,0 m 18.666,3.668 -14.666,0 m 14.332,14 0,-14.668 m -3.5,8.666 0,-14.666 m -11.334,25.332 0,-14.666 m -1.666,12.002 0,-14.668 m -2,8.832 0,-14.666 m 22.166,16.668 0,-14.668 m 1.667,20.668 0,-14.668 m 2.333,17.002 0,-14.668 m -6,-4.842 14.668,0 M -7,-63.174 l 14.666,0 m -9.332,2 14.666,0 m -19.334,5 14.668,0 m -17.668,6.668 14.668,0 m -7,2 14.666,0 m -18,-4.334 14.666,0 M -3.166,-57 l 0,-14.666 m 4.334,17.334 0,-14.668 m -66.166,27.666 14.668,0 m -10,-19.332 14.666,0 m -17.834,16.832 14.668,0 m -10.668,-4.506 14.668,0 m -3.668,3 14.668,0 m -33.834,-0.158 14.668,0 m 2.166,0.5 0,-14.668 m 14.666,17.002 -14.666,0 m 16.5,-10.344 -14.668,0 m 16.334,-1.666 -14.668,0 m 13.17,5 -14.668,0 m 19.334,2.668 -14.668,0 m -5.002,-4.828 0,-14.666 m -6.832,35.502 0,-14.666 m -1.666,20 0,-14.67 m 3,17.67 0,-14.67 m -5.334,13 0,-14.664 m -3.666,13.664 0,-14.664 m 2,19.334 0,-14.67 m 1.332,-21.666 14.668,0 m -21.836,1.666 14.668,0 m -12.834,1.668 14.668,0 m 12,10.668 0,-14.67 m -3.01,21.67 0,-14.668 m -0.656,-2.002 0,-14.666 m 7.334,14.334 0,-14.668 m -9.668,21.67 0,-14.67 m 12,17.67 0,-14.67 m -4.5,5.834 0,-14.668 m -3,18.668 0,-14.666 m 0.168,-1.5 14.667,0 m -12.667,2.334 14.667,0 m -7.667,10.998 0,-14.666 m -4.668,27 0,-14.666 m 22.498,2.332 0,-14.666 m -7,6.666 0,-14.666 m -13.832,39.67 0,-14.67 m -6,-12 14.669,0 m -21.669,1.334 14.668,0 m -22.668,-3.334 14.668,0" /></g><g
             id="g4192"
             transform="translate(7.832,1.332)"><path
               id="path4194"
               style="fill:none;stroke:#231f20;stroke-opacity:1;stroke-width:0.25;stroke-linecap:butt;stroke-linejoin:miter;stroke-miterlimit:4;stroke-dasharray:none"
               d="M 0,0 14.668,0 M 15,6.668 l 14.669,0 m -36.001,6 14.668,0 m -5.334,0 14.666,0 m -9,27.16 14.666,0 M 0,42.67 l 14.668,0 m -15.834,-5.336 14.668,0 M -8.5,39.67 l 14.668,0 m 33.166,13.666 0,-14.666 M 43,43.334 43,28.67 m 1.992,21.998 0,-14.668 m 5.842,17.336 0,-14.666 m 1.332,11 0,-14.666 m -3.832,23.832 0,-14.666 m -7.5,12.666 0,-14.666 m -2,2.492 14.666,0 m -20.997,-22.328 0,-14.666 m 1.334,7.332 0,-14.666 m -3.333,25 0,-14.666 m 4.666,11.666 0,-14.666 m 21.999,41.336 0,-14.67 M 47,45.67 47,31.004 m 8.5,24.498 0,-14.668 m 3.669,19.336 0,-14.666 m 1.507,12.498 0,-14.664 m 1.993,9.832 0,-14.666 m 6.5,8.834 -14.669,0 m 7.669,2.998 -14.669,0 m 9.003,2.334 -14.669,0 m 19,6.334 -14.665,0 m 23.5,-15.166 -14.669,0 m 9,-3.842 -14.666,0 m 23.335,1.842 -14.669,0 m -23.997,-6.004 0,-14.664 m 2.5,11.664 0,-14.664 m 15.331,11.664 0,-14.664 m -12.831,21.164 0,-14.664 m -9,6 14.666,0 m -9,-4.842 14.665,0 m 8,29.176 14.666,0 m -4.166,-14.176 -14.668,0 m 18.668,-2 -14.668,0 m 9.003,-2.332 -14.669,0 m -7.166,-5.826 0,-14.668 m 3.5,8.668 0,-14.668 m -4,7 0,-14.666 M 42.5,16.334 42.5,1.668 m 9.834,15.836 -14.665,0 m 6.665,2.666 -14.665,0 m 4.334,3 -14.669,0 m 24.832,15.664 0,-14.664 M 31.169,7.002 l 0,-14.668 m 25.997,31.5 0,-14.666 m -6.834,26.002 0,-14.666 m 3.167,20 0,-14.666 m -6.667,3.332 0,-14.666 m 12,17.666 0,-14.666 m 3,20.166 0,-14.666 m -1.666,15 0,-14.67 m -4.834,12.336 0,-14.666 M 52,22.162 l 14.666,0 m -11.332,-3 14.666,0 m -12.668,4.334 14.668,0 m -14.668,5.332 14.668,0 m -12.001,-2.666 14.667,0 m -12.667,5 14.667,0 M 30.334,8.828 45,8.828 m -10.334,2.666 14.666,0 M 34,16.162 l 14.666,0 m -30.332,10 14.669,0 m 10.329,-1.158 14.668,0 m -14.334,2 14.666,0 m -9.166,14.166 0,-14.666 M 47,44.67 47,30.004 M 40.666,39 l 0,-14.666 m -2.666,9 14.666,0 m -12,8.67 14.668,0 m -11.668,-10.842 14.668,0 m 2.332,32.506 14.668,0 M 59,57.002 l 14.666,0 m -77.664,10.834 -14.668,0 m 18.168,-5.5 -14.668,0 m -3.168,-8.174 14.666,0 M -14.666,5.16 0,5.16 m -18.334,-4.666 14.668,0 m -9.334,2 14.668,0 m -19.334,5 14.666,0 m -10,8.668 14.668,0 m -18.002,-4.334 14.668,0 m -1.166,35.51 -14.666,0 m 15.166,-3.5 -14.666,0 m 17.666,-2 -14.666,0 m 0.332,10.166 14.668,0 m -4.168,-14.176 -14.666,0 m 18.666,-2 -14.666,0 m 9,-2.332 -14.666,0 m 2.832,-14.334 14.668,0 m -12.668,4.334 14.666,0 m -14.666,5.332 14.666,0 m -12,-2.666 14.666,0 m -12.666,5 14.666,0 m 0.502,-25.328 0,-14.668 M 2.502,8.168 2.502,-6.5 m 52.998,8.834 0,-14.666 M 53,3 53,-11.666 m -23.331,14 0,-14.666 m 31.165,14.666 0,-14.666 m -25.5,16.5 0,-14.668 M 9,3.002 9,-11.666 M -6,3.168 -6,-11.5 M -1,5.168 -1,-9.5 m 28.002,11.834 0,-14.666 m 23.664,23 0,-14.666 m -25.33,14.666 0,-14.668 m -29.334,71.836 -14.666,0 m 13.166,-2.5 -14.666,0 m 19.666,-3 -14.666,0 m -3.17,-8.174 14.668,0 m -11,-49.002 14.668,0 m -18.334,-4.666 14.666,0 m -9.332,2 14.666,0 m -19.334,5 14.668,0 m -17.668,6.668 14.668,0 m -7,2 14.666,0 m -18,-4.334 14.666,0 m -1.164,35.51 -14.668,0 m 15.168,-3.5 -14.668,0 m 17.668,-2 -14.668,0 m 0.334,10.166 14.666,0 m -4.166,-14.176 -14.668,0 m 18.668,-2 -14.668,0 m 9.002,-2.332 -14.668,0 m -0.5,-11.334 14.666,0 m -11.332,-3 14.666,0 m -12.668,4.334 14.668,0 m -14.668,5.332 14.668,0 M -12,26.162 l 14.668,0 m -12.668,5 14.668,0 m -16,32.506 14.668,0 m -16.334,-6.666 14.666,0 m 48.998,25.668 0,-14.666 m 1.5,16.166 0,-14.666 m 5.334,9.166 0,-14.666 m 4.334,17.334 0,-14.668 M 11.5,83.836 11.5,69.17 m 6.502,13.832 0,-14.666 m 7.334,14.334 0,-14.668 m -2.168,15.834 0,-14.668 m 6.168,15.834 0,-14.666 m 17.83,14.666 0,-14.666 m -7,6.666 0,-14.666 m -8.997,16.668 0,-14.668 m -26.001,13.5 0,-14.668 m -2.666,17.002 0,-14.668 M 55.5,74.336 55.5,59.67 M 53,75.002 53,60.336 m -23.331,14 0,-14.666 m 31.165,14.666 0,-14.666 m -25.5,16.5 0,-14.668 M 9,75.004 9,60.336 M -6,75.17 -6,60.502 m 5,16.668 0,-14.668 m 28.002,11.834 0,-14.666 m 23.664,23 0,-14.666 m -25.33,14.666 0,-14.668" /></g></g></g></pattern><clipPath
       id="clipPath4206"
       clipPathUnits="userSpaceOnUse"><path
         inkscape:connector-curvature="0"
         id="path4208"
         d="m 960.36,346.28 221.279,0 0,220.8 -221.279,0 0,-220.8 z" /></clipPath><clipPath
       id="clipPath4530"
       clipPathUnits="userSpaceOnUse"><path
         inkscape:connector-curvature="0"
         id="path4532"
         d="m 0,0 1287,0 0,648 L 0,648 0,0 Z" /></clipPath><clipPath
       id="clipPath4626"
       clipPathUnits="userSpaceOnUse"><path
         inkscape:connector-curvature="0"
         id="path4628"
         d="m 0,0 1287,0 0,648 L 0,648 0,0 Z" /></clipPath><clipPath
       id="clipPath4726"
       clipPathUnits="userSpaceOnUse"><path
         inkscape:connector-curvature="0"
         id="path4728"
         d="m 0,0 1287,0 0,648 L 0,648 0,0 Z" /></clipPath><clipPath
       id="clipPath4818"
       clipPathUnits="userSpaceOnUse"><path
         inkscape:connector-curvature="0"
         id="path4820"
         d="m 0,0 1287,0 0,648 L 0,648 0,0 Z" /></clipPath><clipPath
       id="clipPath5650"
       clipPathUnits="userSpaceOnUse"><path
         inkscape:connector-curvature="0"
         id="path5652"
         d="m 459,35.041 41.728,0 0,180.42 -41.728,0 0,-180.42 z" /></clipPath><clipPath
       id="clipPath5686"
       clipPathUnits="userSpaceOnUse"><path
         inkscape:connector-curvature="0"
         id="path5688"
         d="m 459,38.723 36.028,0 0,175.013 -36.028,0 0,-175.013 z" /></clipPath><clipPath
       id="clipPath5702"
       clipPathUnits="userSpaceOnUse"><path
         inkscape:connector-curvature="0"
         id="path5704"
         d="m 459,35.041 41.728,0 0,180.42 -41.728,0 0,-180.42 z" /></clipPath><clipPath
       id="clipPath4206-8"
       clipPathUnits="userSpaceOnUse"><path
         inkscape:connector-curvature="0"
         id="path4208-1"
         d="m 960.36,346.28 221.279,0 0,220.8 -221.279,0 0,-220.8 z" /></clipPath><clipPath
       clipPathUnits="userSpaceOnUse"
       id="clipPath18"><path
         d="m 73.292,443.052 c 0,-48.162 39.042,-87.206 87.204,-87.206 l 0,0 c 48.164,0 87.206,39.044 87.206,87.206 l 0,0 c 0,48.163 -39.042,87.208 -87.206,87.208 l 0,0 c -48.162,0 -87.204,-39.045 -87.204,-87.208 m 15.193,0 c 0,39.772 32.239,72.014 72.011,72.014 l 0,0 c 39.772,0 72.013,-32.242 72.013,-72.014 l 0,0 c 0,-39.769 -32.241,-72.013 -72.013,-72.013 l 0,0 c -39.772,0 -72.011,32.244 -72.011,72.013"
         id="path16"
         inkscape:connector-curvature="0" /></clipPath><linearGradient
       x1="0"
       y1="0"
       x2="1"
       y2="0"
       gradientUnits="userSpaceOnUse"
       gradientTransform="matrix(174.40918,0,0,174.40918,73.254395,443.06348)"
       spreadMethod="pad"
       id="linearGradient38"><stop
         style="stop-opacity:1;stop-color:#69c5f0"
         offset="0"
         id="stop24" /><stop
         style="stop-opacity:1;stop-color:#69c5f0"
         offset="0.0500031"
         id="stop26" /><stop
         style="stop-opacity:1;stop-color:#3f88d0"
         offset="0.38163422"
         id="stop28" /><stop
         style="stop-opacity:1;stop-color:#3f88d0"
         offset="0.5"
         id="stop30" /><stop
         style="stop-opacity:1;stop-color:#2c61b5"
         offset="0.73155617"
         id="stop32" /><stop
         style="stop-opacity:1;stop-color:#2c61b5"
         offset="0.949997"
         id="stop34" /><stop
         style="stop-opacity:1;stop-color:#2c61b5"
         offset="1"
         id="stop36" /></linearGradient><clipPath
       clipPathUnits="userSpaceOnUse"
       id="clipPath48"><path
         d="m 95.867,433.685 c 21.232,-3.019 42.932,-4.58 64.994,-4.58 l 0,0 c 22.064,0 43.766,1.561 64.997,4.58 l 0,0 c -21.231,3.014 -42.933,4.576 -64.997,4.576 l 0,0 c -22.062,0 -43.762,-1.562 -64.994,-4.576"
         id="path46"
         inkscape:connector-curvature="0" /></clipPath><linearGradient
       x1="0"
       y1="0"
       x2="1"
       y2="0"
       gradientUnits="userSpaceOnUse"
       gradientTransform="matrix(129.98975,0,0,129.98975,95.844238,433.65674)"
       spreadMethod="pad"
       id="linearGradient68"><stop
         style="stop-opacity:1;stop-color:#69c5f0"
         offset="0"
         id="stop54" /><stop
         style="stop-opacity:1;stop-color:#69c5f0"
         offset="0.0500031"
         id="stop56" /><stop
         style="stop-opacity:1;stop-color:#3f88d0"
         offset="0.38163422"
         id="stop58" /><stop
         style="stop-opacity:1;stop-color:#3f88d0"
         offset="0.5"
         id="stop60" /><stop
         style="stop-opacity:1;stop-color:#2c61b5"
         offset="0.73155617"
         id="stop62" /><stop
         style="stop-opacity:1;stop-color:#2c61b5"
         offset="0.949997"
         id="stop64" /><stop
         style="stop-opacity:1;stop-color:#2c61b5"
         offset="1"
         id="stop66" /></linearGradient><clipPath
       clipPathUnits="userSpaceOnUse"
       id="clipPath82"><path
         d="m 0,841.89 595.275,0 L 595.275,0 0,0 Z"
         id="path80"
         inkscape:connector-curvature="0" /></clipPath><linearGradient
       x1="0"
       y1="0"
       x2="1"
       y2="0"
       gradientUnits="userSpaceOnUse"
       gradientTransform="matrix(129.9883,0,0,129.9883,366.20605,433.53076)"
       spreadMethod="pad"
       id="linearGradient374"><stop
         style="stop-opacity:1;stop-color:#69c5f0"
         offset="0"
         id="stop360" /><stop
         style="stop-opacity:1;stop-color:#69c5f0"
         offset="0.0500031"
         id="stop362" /><stop
         style="stop-opacity:1;stop-color:#3f88d0"
         offset="0.38163422"
         id="stop364" /><stop
         style="stop-opacity:1;stop-color:#3f88d0"
         offset="0.5"
         id="stop366" /><stop
         style="stop-opacity:1;stop-color:#2c61b5"
         offset="0.73155617"
         id="stop368" /><stop
         style="stop-opacity:1;stop-color:#2c61b5"
         offset="0.949997"
         id="stop370" /><stop
         style="stop-opacity:1;stop-color:#2c61b5"
         offset="1"
         id="stop372" /></linearGradient><clipPath
       clipPathUnits="userSpaceOnUse"
       id="clipPath384"><path
         d="m 0,841.89 595.275,0 L 595.275,0 0,0 Z"
         id="path382"
         inkscape:connector-curvature="0" /></clipPath></defs><sodipodi:namedview
     pagecolor="#ffffff"
     bordercolor="#666666"
     borderopacity="1"
     objecttolerance="10"
     gridtolerance="10"
     guidetolerance="10"
     inkscape:pageopacity="0"
     inkscape:pageshadow="2"
     inkscape:window-width="1292"
     inkscape:window-height="684"
     id="namedview4175"
     showgrid="false"
     fit-margin-top="0"
     fit-margin-left="0"
     fit-margin-right="0"
     fit-margin-bottom="0"
     inkscape:zoom="1"
     inkscape:cx="176.39338"
     inkscape:cy="0.14514984"
     inkscape:window-x="355"
     inkscape:window-y="185"
     inkscape:window-maximized="0"
     inkscape:current-layer="g4181" /><g
     id="g4181"
     inkscape:groupmode="layer"
     inkscape:label="legacy-brochure"
     transform="matrix(1.25,0,0,-1.25,218.5606,338.0996)"><g
       id="g5862"
       transform="matrix(1.6113656,0,0,1.6113656,37.812935,-145.6496)"><g
         id="g5853"><path
           inkscape:connector-curvature="0"
           id="path334"
           style="fill:#1f4899;fill-opacity:1;fill-rule:nonzero;stroke:none"
           d="m -65.038147,233.67435 6.380594,0 0,24.00428 -6.380594,0 z" /><g
           transform="matrix(1.0484052,0,0,1.0484052,-30.94055,257.67969)"
           id="g336"><path
             inkscape:connector-curvature="0"
             id="path338"
             style="fill:#1f4899;fill-opacity:1;fill-rule:nonzero;stroke:none"
             d="m 0,0 0,-4.771 7.656,0 0,-18.126 6.084,0 0,18.126 7.655,0 0,4.771 z" /></g><g
           transform="matrix(1.0484052,0,0,1.0484052,-39.827356,248.17747)"
           id="g340"><path
             inkscape:connector-curvature="0"
             id="path342"
             style="fill:#1f4899;fill-opacity:1;fill-rule:nonzero;stroke:none"
             d="m 0,0 -5.086,0 c -1.352,0 -2.445,0.559 -2.445,2.146 0,1.592 1.093,2.147 2.445,2.147 l 10.936,0 0,4.77 -11.657,0 c -4.351,0 -7.881,-2.512 -7.881,-6.917 0,-4.404 3.53,-6.916 7.881,-6.916 l 5.233,0 c 1.349,0 2.445,-0.558 2.445,-2.15 0,-1.588 -1.096,-2.144 -2.445,-2.144 l -12.27,0 0,-4.77 12.844,0 c 4.354,0 7.879,2.508 7.879,6.914 C 7.879,-2.52 4.354,0 0,0" /></g><g
           transform="matrix(1.0484052,0,0,1.0484052,-84.460378,257.67969)"
           id="g344"><path
             inkscape:connector-curvature="0"
             id="path346"
             style="fill:#1f4899;fill-opacity:1;fill-rule:nonzero;stroke:none"
             d="m 0,0 -8.607,-20.603 -8.205,9.153 10.259,11.45 -6.949,0 -9.723,-10.87 0,10.87 -6.087,0 0,-22.897 6.087,0 0,10.869 9.723,-10.869 10.121,0 6.969,17.267 5.062,-12.693 -8.046,0 1.912,-4.574 14.226,0 L 7.176,0 Z" /></g></g><g
         transform="matrix(1.0484052,0,0,1.0484052,-513.89187,-230.96416)"
         id="g356"><g
           id="g358"><path
             d="m 366.177,433.572 c 21.232,-3.019 42.932,-4.58 64.996,-4.58 l 0,0 c 22.063,0 43.762,1.561 64.992,4.58 l 0,0 c -21.23,3.015 -42.929,4.577 -64.992,4.577 l 0,0 c -22.064,0 -43.764,-1.562 -64.996,-4.577"
             style="fill:url(#linearGradient374);stroke:none"
             id="path376"
             inkscape:connector-curvature="0" /></g></g></g></g></svg>